<?xml version="1.0" encoding="utf-8"?>
<!-- Generator: Adobe Illustrator 21.1.0, SVG Export Plug-In . SVG Version: 6.00 Build 0)  -->
<svg version="1.1" id="Layer_1" xmlns="http://www.w3.org/2000/svg" xmlns:xlink="http://www.w3.org/1999/xlink" x="0px" y="0px"
	 viewBox="0 0 247 56" style="enable-background:new 0 0 247 56;" xml:space="preserve">
<style type="text/css">
	.st0{display:none;fill:#070000;}
	.st1{fill-rule:evenodd;clip-rule:evenodd;fill:#FFFFFF;}
	.st2{fill:#FFFFFF;}
</style>
<rect x="-4" y="-10" class="st0" width="261" height="79"/>
<path class="st1" d="M5.5,53H2.8l-0.3,0.7c-0.1,0.2-0.2,0.5-0.2,0.6c0,0.2,0.1,0.4,0.3,0.5c0.1,0.1,0.4,0.1,0.7,0.1v0.2H0.8v-0.2
	c0.3,0,0.5-0.2,0.7-0.3c0.2-0.2,0.4-0.6,0.7-1.2l2.7-6.1h0.1l2.7,6.2c0.3,0.6,0.5,1,0.6,1.1c0.1,0.1,0.3,0.2,0.5,0.2v0.2H5.2v-0.2
	h0.2c0.3,0,0.5,0,0.6-0.1c0.1-0.1,0.1-0.1,0.1-0.3c0-0.1,0-0.1,0-0.2c0,0-0.1-0.2-0.2-0.4L5.5,53L5.5,53z M5.3,52.5l-1.1-2.6L3,52.5
	H5.3L5.3,52.5z"/>
<path class="st2" d="M13.5,49.9V54c0,0.4,0,0.7,0.1,0.8c0.1,0.1,0.2,0.2,0.5,0.2v0.2h-2.1v-0.7c-0.3,0.3-0.5,0.5-0.8,0.7
	c-0.3,0.1-0.5,0.2-0.8,0.2c-0.3,0-0.6-0.1-0.8-0.3c-0.2-0.2-0.4-0.4-0.5-0.6C9,54.1,9,53.7,9,53.1V51c0-0.4,0-0.6-0.1-0.7
	c-0.1-0.1-0.2-0.2-0.5-0.2v-0.2h2.1v3.6c0,0.4,0,0.6,0,0.7c0,0.1,0.1,0.2,0.2,0.3c0.1,0.1,0.2,0.1,0.3,0.1c0.1,0,0.3,0,0.4-0.1
	c0.1-0.1,0.3-0.3,0.5-0.6V51c0-0.4,0-0.6-0.1-0.7c-0.1-0.1-0.2-0.2-0.5-0.2v-0.2H13.5L13.5,49.9z"/>
<path class="st2" d="M17.8,49.7l0.1,1.8h-0.2c-0.2-0.5-0.5-0.9-0.7-1.1c-0.2-0.2-0.5-0.3-0.7-0.3c-0.2,0-0.3,0.1-0.4,0.2
	c-0.1,0.1-0.2,0.2-0.2,0.4c0,0.1,0,0.2,0.1,0.3c0.1,0.2,0.5,0.4,1,0.8c0.6,0.4,0.9,0.7,1.1,0.9c0.2,0.3,0.3,0.6,0.3,0.9
	c0,0.3-0.1,0.6-0.2,0.9c-0.1,0.3-0.4,0.5-0.6,0.6c-0.3,0.1-0.6,0.2-0.9,0.2c-0.3,0-0.6-0.1-1-0.2c-0.1,0-0.2-0.1-0.2-0.1
	c-0.1,0-0.2,0.1-0.3,0.3h-0.2l-0.1-1.9h0.2c0.2,0.5,0.4,0.9,0.7,1.1c0.3,0.2,0.6,0.4,0.8,0.4c0.2,0,0.3-0.1,0.4-0.2
	c0.1-0.1,0.2-0.2,0.2-0.4c0-0.2-0.1-0.3-0.2-0.5c-0.1-0.1-0.4-0.3-0.8-0.6c-0.6-0.4-0.9-0.7-1.1-0.9c-0.2-0.3-0.4-0.6-0.4-1
	c0-0.4,0.1-0.8,0.4-1.1c0.3-0.3,0.7-0.5,1.2-0.5c0.3,0,0.6,0.1,0.8,0.2c0.1,0.1,0.2,0.1,0.2,0.1c0.1,0,0.1,0,0.2,0
	c0,0,0.1-0.1,0.2-0.2H17.8L17.8,49.7z"/>
<path class="st2" d="M20.5,48v1.9h1.2v0.6h-1.2v3.2c0,0.3,0,0.5,0,0.6c0,0.1,0.1,0.2,0.2,0.2c0.1,0.1,0.1,0.1,0.2,0.1
	c0.2,0,0.5-0.2,0.7-0.6l0.2,0.1c-0.3,0.7-0.8,1.1-1.5,1.1c-0.3,0-0.6-0.1-0.8-0.3c-0.2-0.2-0.4-0.4-0.4-0.6c0-0.1-0.1-0.5-0.1-1
	v-2.8h-0.7v-0.2c0.5-0.3,0.9-0.7,1.2-1c0.3-0.4,0.6-0.8,0.9-1.2H20.5L20.5,48z"/>
<path class="st2" d="M24.4,49.9v1.2c0.3-0.5,0.7-0.9,0.9-1.1c0.3-0.2,0.5-0.3,0.8-0.3c0.2,0,0.4,0.1,0.5,0.2
	c0.1,0.1,0.2,0.3,0.2,0.5c0,0.3-0.1,0.4-0.2,0.6c-0.1,0.1-0.3,0.2-0.4,0.2c-0.2,0-0.4-0.1-0.5-0.2c-0.1-0.1-0.2-0.2-0.3-0.2
	c0,0-0.1,0-0.1,0c-0.1,0-0.2,0-0.3,0.1c-0.2,0.1-0.3,0.3-0.3,0.5c-0.1,0.4-0.2,0.8-0.2,1.2v1.2l0,0.3c0,0.2,0,0.4,0,0.4
	c0,0.1,0.1,0.2,0.2,0.2c0.1,0,0.2,0.1,0.4,0.1v0.2h-2.8v-0.2c0.2,0,0.4-0.1,0.5-0.2c0.1-0.1,0.1-0.4,0.1-0.8V51c0-0.3,0-0.5,0-0.6
	c0-0.1-0.1-0.2-0.2-0.2c-0.1-0.1-0.2-0.1-0.4-0.1v-0.2H24.4L24.4,49.9z"/>
<path class="st1" d="M29.6,54.4c-0.6,0.6-1.2,0.8-1.7,0.8c-0.3,0-0.5-0.1-0.7-0.3c-0.2-0.2-0.3-0.4-0.3-0.7c0-0.4,0.2-0.8,0.5-1.1
	c0.3-0.3,1.1-0.8,2.3-1.3v-0.5c0-0.4,0-0.6-0.1-0.7c0-0.1-0.1-0.2-0.2-0.3c-0.1-0.1-0.3-0.1-0.4-0.1c-0.2,0-0.4,0.1-0.6,0.2
	c-0.1,0.1-0.1,0.1-0.1,0.2c0,0.1,0.1,0.2,0.2,0.3c0.1,0.2,0.2,0.3,0.2,0.5c0,0.2-0.1,0.3-0.2,0.5C28.2,51.9,28,52,27.8,52
	c-0.2,0-0.4-0.1-0.6-0.2C27,51.6,27,51.4,27,51.3c0-0.3,0.1-0.5,0.3-0.8c0.2-0.2,0.5-0.4,0.9-0.6c0.4-0.1,0.8-0.2,1.2-0.2
	c0.5,0,0.9,0.1,1.2,0.3c0.3,0.2,0.5,0.4,0.6,0.7c0.1,0.2,0.1,0.5,0.1,1.1v2c0,0.2,0,0.4,0,0.5c0,0.1,0,0.1,0.1,0.1c0,0,0.1,0,0.1,0
	c0.1,0,0.2-0.1,0.3-0.2l0.2,0.1c-0.2,0.3-0.4,0.5-0.6,0.6c-0.2,0.1-0.4,0.2-0.7,0.2c-0.3,0-0.5-0.1-0.7-0.2
	C29.8,54.9,29.7,54.6,29.6,54.4L29.6,54.4z M29.6,53.9v-1.8c-0.5,0.3-0.8,0.5-1,0.9c-0.1,0.2-0.2,0.4-0.2,0.6c0,0.2,0.1,0.3,0.2,0.5
	c0.1,0.1,0.2,0.2,0.4,0.2C29.2,54.3,29.4,54.2,29.6,53.9L29.6,53.9z"/>
<path class="st2" d="M34.2,47.5V54c0,0.4,0,0.6,0.1,0.7c0.1,0.1,0.3,0.2,0.5,0.2v0.2H32v-0.2c0.2,0,0.4-0.1,0.5-0.2
	c0.1-0.1,0.1-0.3,0.1-0.7v-5.4c0-0.4,0-0.6-0.1-0.7c-0.1-0.1-0.3-0.2-0.5-0.2v-0.2H34.2L34.2,47.5z"/>
<path class="st1" d="M36.6,47.3c0.2,0,0.4,0.1,0.6,0.3c0.2,0.2,0.3,0.4,0.3,0.6c0,0.2-0.1,0.4-0.3,0.6c-0.2,0.2-0.4,0.3-0.6,0.3
	c-0.2,0-0.4-0.1-0.6-0.3c-0.2-0.2-0.3-0.4-0.3-0.6c0-0.2,0.1-0.4,0.3-0.6C36.1,47.4,36.3,47.3,36.6,47.3L36.6,47.3z M37.4,49.9V54
	c0,0.4,0,0.6,0.1,0.7c0.1,0.1,0.3,0.2,0.5,0.2v0.2h-2.8v-0.2c0.2,0,0.4-0.1,0.5-0.2c0.1-0.1,0.1-0.3,0.1-0.7V51c0-0.4,0-0.6-0.1-0.7
	c-0.1-0.1-0.3-0.2-0.5-0.2v-0.2H37.4L37.4,49.9z"/>
<path class="st1" d="M41.1,54.4c-0.6,0.6-1.2,0.8-1.7,0.8c-0.3,0-0.5-0.1-0.7-0.3c-0.2-0.2-0.3-0.4-0.3-0.7c0-0.4,0.2-0.8,0.5-1.1
	c0.3-0.3,1.1-0.8,2.3-1.3v-0.5c0-0.4,0-0.6-0.1-0.7c0-0.1-0.1-0.2-0.2-0.3c-0.1-0.1-0.3-0.1-0.4-0.1c-0.2,0-0.4,0.1-0.6,0.2
	c-0.1,0.1-0.1,0.1-0.1,0.2c0,0.1,0.1,0.2,0.2,0.3c0.1,0.2,0.2,0.3,0.2,0.5c0,0.2-0.1,0.3-0.2,0.5c-0.1,0.1-0.3,0.2-0.5,0.2
	c-0.2,0-0.4-0.1-0.6-0.2c-0.2-0.1-0.2-0.3-0.2-0.5c0-0.3,0.1-0.5,0.3-0.8c0.2-0.2,0.5-0.4,0.9-0.6c0.4-0.1,0.8-0.2,1.2-0.2
	c0.5,0,0.9,0.1,1.2,0.3c0.3,0.2,0.5,0.4,0.6,0.7c0.1,0.2,0.1,0.5,0.1,1.1v2c0,0.2,0,0.4,0,0.5c0,0.1,0,0.1,0.1,0.1c0,0,0.1,0,0.1,0
	c0.1,0,0.2-0.1,0.3-0.2l0.2,0.1c-0.2,0.3-0.4,0.5-0.6,0.6c-0.2,0.1-0.4,0.2-0.7,0.2c-0.3,0-0.5-0.1-0.7-0.2
	C41.2,54.9,41.1,54.6,41.1,54.4L41.1,54.4z M41.1,53.9v-1.8c-0.5,0.3-0.8,0.5-1,0.9c-0.1,0.2-0.2,0.4-0.2,0.6c0,0.2,0.1,0.3,0.2,0.5
	c0.1,0.1,0.2,0.2,0.4,0.2C40.6,54.3,40.8,54.2,41.1,53.9L41.1,53.9z"/>
<path class="st2" d="M45.6,49.9v0.7c0.3-0.3,0.5-0.5,0.8-0.6c0.2-0.1,0.5-0.2,0.8-0.2c0.3,0,0.6,0.1,0.9,0.3
	c0.2,0.2,0.4,0.4,0.4,0.7c0.1,0.2,0.1,0.6,0.1,1.2v2c0,0.4,0,0.7,0.1,0.8c0.1,0.1,0.2,0.2,0.5,0.2v0.2h-2.7v-0.2
	c0.2,0,0.3-0.1,0.4-0.2C47,54.6,47,54.4,47,54v-2.3c0-0.4,0-0.7-0.1-0.8c0-0.1-0.1-0.2-0.2-0.3c-0.1-0.1-0.2-0.1-0.3-0.1
	c-0.3,0-0.6,0.2-0.9,0.7V54c0,0.4,0,0.6,0.1,0.7c0.1,0.1,0.2,0.2,0.4,0.2v0.2h-2.7v-0.2c0.2,0,0.4-0.1,0.5-0.2
	C44,54.6,44,54.4,44,54v-3c0-0.4,0-0.6-0.1-0.7c-0.1-0.1-0.2-0.2-0.5-0.2v-0.2H45.6L45.6,49.9z"/>
<path class="st2" d="M59.5,47.3V50h-0.2c-0.3-0.7-0.6-1.3-1.1-1.7c-0.5-0.4-1.1-0.6-1.6-0.6c-0.6,0-1,0.2-1.4,0.5
	c-0.4,0.3-0.6,0.8-0.8,1.3c-0.2,0.6-0.2,1.2-0.2,1.8c0,0.7,0.1,1.4,0.3,1.9c0.2,0.5,0.4,1,0.8,1.2c0.4,0.3,0.8,0.4,1.4,0.4
	c0.2,0,0.4,0,0.6-0.1c0.2,0,0.4-0.1,0.6-0.2v-1.6c0-0.3,0-0.5-0.1-0.6c0-0.1-0.1-0.2-0.3-0.2c-0.1-0.1-0.3-0.1-0.5-0.1h-0.2v-0.2
	h3.7v0.2c-0.3,0-0.5,0.1-0.6,0.1c-0.1,0.1-0.2,0.2-0.3,0.3c0,0.1-0.1,0.2-0.1,0.5v1.6c-0.5,0.2-1,0.4-1.5,0.5
	c-0.5,0.1-1.1,0.2-1.6,0.2c-0.7,0-1.3-0.1-1.8-0.3c-0.5-0.2-0.9-0.5-1.3-0.8c-0.4-0.3-0.6-0.7-0.9-1.1c-0.3-0.5-0.4-1.1-0.4-1.7
	c0-1.1,0.4-2.1,1.2-2.9c0.8-0.8,1.8-1.2,3-1.2c0.4,0,0.7,0,1,0.1c0.2,0,0.4,0.1,0.8,0.3c0.4,0.1,0.6,0.2,0.7,0.2
	c0.1,0,0.2,0,0.3-0.1c0.1-0.1,0.2-0.2,0.2-0.4H59.5L59.5,47.3z"/>
<path class="st1" d="M63.1,49.7c0.5,0,0.9,0.1,1.3,0.4c0.4,0.2,0.7,0.6,0.9,1c0.2,0.4,0.3,0.9,0.3,1.4c0,0.7-0.2,1.4-0.6,1.9
	c-0.5,0.6-1.1,0.9-1.9,0.9c-0.8,0-1.4-0.3-1.8-0.8c-0.4-0.6-0.6-1.2-0.6-1.9c0-0.8,0.2-1.4,0.7-2C61.8,50,62.4,49.7,63.1,49.7
	L63.1,49.7z M63.2,50.1c-0.2,0-0.4,0.1-0.5,0.2c-0.1,0.1-0.2,0.4-0.3,0.9c0,0.4-0.1,1-0.1,1.8c0,0.4,0,0.8,0.1,1.1
	c0,0.3,0.1,0.5,0.3,0.6c0.1,0.1,0.3,0.2,0.5,0.2c0.2,0,0.3,0,0.4-0.1c0.1-0.1,0.2-0.3,0.3-0.5c0.1-0.4,0.1-1.1,0.1-2.2
	c0-0.6,0-1.1-0.1-1.3c-0.1-0.2-0.2-0.4-0.3-0.5C63.5,50.2,63.3,50.1,63.2,50.1L63.2,50.1z"/>
<path class="st2" d="M68.1,55.3l-1.8-4.1c-0.2-0.5-0.4-0.8-0.5-0.9c-0.1-0.1-0.2-0.2-0.4-0.2v-0.2h2.8v0.2c-0.2,0-0.3,0-0.4,0.1
	c-0.1,0.1-0.1,0.2-0.1,0.3c0,0.1,0.1,0.4,0.2,0.8l0.9,2l0.7-1.7c0.2-0.5,0.3-0.8,0.3-1c0-0.1,0-0.2-0.1-0.3
	c-0.1-0.1-0.2-0.1-0.4-0.1v-0.2H71v0.2c-0.2,0-0.3,0.1-0.4,0.2c-0.1,0.1-0.3,0.4-0.5,0.9l-1.8,4.1H68.1L68.1,55.3z"/>
<path class="st1" d="M75.1,52.3h-2.9c0,0.7,0.2,1.2,0.6,1.7c0.3,0.3,0.6,0.5,0.9,0.5c0.2,0,0.4-0.1,0.6-0.2c0.2-0.1,0.4-0.4,0.6-0.7
	l0.2,0.1c-0.3,0.6-0.6,1-0.9,1.2c-0.3,0.2-0.7,0.4-1.2,0.4c-0.8,0-1.4-0.3-1.8-0.9c-0.3-0.5-0.5-1.1-0.5-1.8c0-0.9,0.2-1.6,0.7-2.1
	c0.5-0.5,1-0.8,1.7-0.8c0.5,0,1,0.2,1.4,0.7C74.9,50.8,75.1,51.5,75.1,52.3L75.1,52.3z M73.8,51.9c0-0.6,0-1-0.1-1.2
	c-0.1-0.2-0.2-0.4-0.3-0.5c-0.1-0.1-0.2-0.1-0.3-0.1c-0.2,0-0.4,0.1-0.5,0.3c-0.2,0.3-0.3,0.8-0.3,1.4v0.2H73.8L73.8,51.9z"/>
<path class="st2" d="M77.6,49.9v1.2c0.3-0.5,0.7-0.9,0.9-1.1c0.3-0.2,0.5-0.3,0.8-0.3c0.2,0,0.4,0.1,0.5,0.2
	c0.1,0.1,0.2,0.3,0.2,0.5c0,0.3-0.1,0.4-0.2,0.6c-0.1,0.1-0.3,0.2-0.4,0.2c-0.2,0-0.4-0.1-0.5-0.2c-0.1-0.1-0.2-0.2-0.3-0.2
	c0,0-0.1,0-0.1,0c-0.1,0-0.2,0-0.3,0.1c-0.2,0.1-0.3,0.3-0.3,0.5c-0.1,0.4-0.2,0.8-0.2,1.2v1.2l0,0.3c0,0.2,0,0.4,0,0.4
	c0,0.1,0.1,0.2,0.2,0.2c0.1,0,0.2,0.1,0.4,0.1v0.2h-2.8v-0.2c0.2,0,0.4-0.1,0.5-0.2c0.1-0.1,0.1-0.4,0.1-0.8V51c0-0.3,0-0.5,0-0.6
	c0-0.1-0.1-0.2-0.2-0.2c-0.1-0.1-0.2-0.1-0.4-0.1v-0.2H77.6L77.6,49.9z"/>
<path class="st2" d="M82.5,49.9v0.7c0.3-0.3,0.5-0.5,0.8-0.6c0.2-0.1,0.5-0.2,0.8-0.2c0.3,0,0.6,0.1,0.8,0.3
	c0.2,0.2,0.4,0.4,0.5,0.7c0.1,0.2,0.1,0.6,0.1,1.2v2c0,0.4,0,0.7,0.1,0.8c0.1,0.1,0.2,0.2,0.5,0.2v0.2h-2.7v-0.2
	c0.2,0,0.3-0.1,0.4-0.2c0.1-0.1,0.1-0.3,0.1-0.7v-2.3c0-0.4,0-0.7,0-0.8c0-0.1-0.1-0.2-0.2-0.3c-0.1-0.1-0.2-0.1-0.3-0.1
	c-0.3,0-0.6,0.2-0.9,0.7V54c0,0.4,0,0.6,0.1,0.7c0.1,0.1,0.2,0.2,0.4,0.2v0.2h-2.7v-0.2c0.2,0,0.4-0.1,0.5-0.2
	c0.1-0.1,0.1-0.3,0.1-0.7v-3c0-0.4,0-0.6-0.1-0.7c-0.1-0.1-0.2-0.2-0.5-0.2v-0.2H82.5L82.5,49.9z"/>
<path class="st2" d="M88.6,49.9v0.7c0.3-0.3,0.6-0.5,0.8-0.7c0.2-0.1,0.5-0.2,0.8-0.2c0.3,0,0.6,0.1,0.8,0.2
	c0.2,0.2,0.4,0.4,0.5,0.7c0.3-0.3,0.6-0.6,0.9-0.7c0.3-0.2,0.6-0.2,0.9-0.2c0.4,0,0.7,0.1,0.9,0.3c0.2,0.2,0.4,0.4,0.5,0.6
	c0.1,0.3,0.1,0.7,0.1,1.2V54c0,0.4,0,0.7,0.1,0.8c0.1,0.1,0.2,0.2,0.5,0.2v0.2h-2.7v-0.2c0.2,0,0.4-0.1,0.5-0.2
	c0.1-0.1,0.1-0.3,0.1-0.7v-2.3c0-0.5,0-0.8-0.1-0.9c0-0.1-0.1-0.2-0.2-0.3c-0.1-0.1-0.2-0.1-0.3-0.1c-0.2,0-0.3,0.1-0.5,0.2
	c-0.2,0.1-0.3,0.3-0.5,0.5V54c0,0.4,0,0.6,0.1,0.7c0.1,0.1,0.3,0.2,0.5,0.2v0.2h-2.7v-0.2c0.1,0,0.3,0,0.3-0.1
	c0.1-0.1,0.1-0.1,0.2-0.2c0-0.1,0-0.3,0-0.6v-2.3c0-0.5,0-0.8-0.1-0.9c0-0.1-0.1-0.2-0.2-0.3c-0.1-0.1-0.2-0.1-0.3-0.1
	c-0.1,0-0.3,0-0.4,0.1c-0.2,0.1-0.4,0.3-0.6,0.6V54c0,0.4,0,0.6,0.1,0.7c0.1,0.1,0.2,0.2,0.5,0.2v0.2h-2.7v-0.2
	c0.2,0,0.4-0.1,0.5-0.2C87,54.6,87,54.4,87,54v-3c0-0.4,0-0.6-0.1-0.7c-0.1-0.1-0.2-0.2-0.5-0.2v-0.2H88.6L88.6,49.9z"/>
<path class="st1" d="M100,52.3h-2.9c0,0.7,0.2,1.2,0.6,1.7c0.3,0.3,0.6,0.5,0.9,0.5c0.2,0,0.4-0.1,0.6-0.2c0.2-0.1,0.4-0.4,0.6-0.7
	l0.2,0.1c-0.3,0.6-0.6,1-0.9,1.2c-0.3,0.2-0.7,0.4-1.2,0.4c-0.8,0-1.4-0.3-1.8-0.9c-0.3-0.5-0.5-1.1-0.5-1.8c0-0.9,0.2-1.6,0.7-2.1
	c0.5-0.5,1-0.8,1.7-0.8c0.5,0,1,0.2,1.4,0.7C99.7,50.8,99.9,51.5,100,52.3L100,52.3z M98.6,51.9c0-0.6,0-1-0.1-1.2
	c-0.1-0.2-0.2-0.4-0.3-0.5c-0.1-0.1-0.2-0.1-0.3-0.1c-0.2,0-0.3,0.1-0.5,0.3c-0.2,0.3-0.3,0.8-0.3,1.4v0.2H98.6L98.6,51.9z"/>
<path class="st2" d="M102.3,49.9v0.7c0.3-0.3,0.5-0.5,0.8-0.6c0.3-0.1,0.5-0.2,0.8-0.2c0.3,0,0.6,0.1,0.8,0.3
	c0.2,0.2,0.4,0.4,0.5,0.7c0.1,0.2,0.1,0.6,0.1,1.2v2c0,0.4,0,0.7,0.1,0.8c0.1,0.1,0.2,0.2,0.5,0.2v0.2h-2.7v-0.2
	c0.2,0,0.3-0.1,0.4-0.2c0.1-0.1,0.1-0.3,0.1-0.7v-2.3c0-0.4,0-0.7-0.1-0.8c0-0.1-0.1-0.2-0.2-0.3c-0.1-0.1-0.2-0.1-0.3-0.1
	c-0.3,0-0.6,0.2-0.9,0.7V54c0,0.4,0,0.6,0.1,0.7c0.1,0.1,0.2,0.2,0.4,0.2v0.2h-2.7v-0.2c0.2,0,0.4-0.1,0.5-0.2
	c0.1-0.1,0.1-0.3,0.1-0.7v-3c0-0.4,0-0.6-0.1-0.7c-0.1-0.1-0.2-0.2-0.5-0.2v-0.2H102.3L102.3,49.9z"/>
<path class="st2" d="M108.1,48v1.9h1.3v0.6h-1.3v3.2c0,0.3,0,0.5,0,0.6c0,0.1,0.1,0.2,0.2,0.2c0.1,0.1,0.1,0.1,0.2,0.1
	c0.2,0,0.5-0.2,0.7-0.6l0.2,0.1c-0.3,0.7-0.8,1.1-1.5,1.1c-0.3,0-0.6-0.1-0.8-0.3c-0.2-0.2-0.4-0.4-0.4-0.6c0-0.1-0.1-0.5-0.1-1
	v-2.8h-0.7v-0.2c0.5-0.3,0.9-0.7,1.2-1c0.3-0.4,0.6-0.8,0.9-1.2H108.1L108.1,48z"/>
<path class="st2" d="M46.1,33.9c0,0.1-0.1,0.1-0.1,0.1"/>
<path class="st2" d="M47.4,23.6c0.2,0,0.3-0.1,0.3-0.3c0-0.2-0.1-0.3-0.3-0.3c-0.2,0-0.3,0.1-0.3,0.3C47.2,23.5,47.3,23.6,47.4,23.6
	L47.4,23.6z"/>
<path class="st2" d="M60.2,12L60.2,12l-9.9,0v0h0l0,8c0,0.8,0.3,1.4,0.8,1.7l3.8,2.3c0.1,0.1,0.2,0.2,0.3,0.2c0.1,0,0.2,0,0.3-0.1
	l3.9-2.3c0.4-0.2,0.8-0.9,0.8-1.7L60.2,12L60.2,12L60.2,12z M53.6,14.3h-0.9v-2.1h0.9V14.3L53.6,14.3z M53,15l0.1-0.1L53,14.8l0.2,0
	l0.1-0.2l0.1,0.2l0.2,0l-0.1,0.1l0.1,0.1l-0.2,0v0.2l-0.2-0.1l-0.1,0.1v-0.2L53,15L53,15z M50.6,17.6v-1.9h1v1.9H50.6L50.6,17.6z
	 M50.7,14.8l0.2,0l0.1-0.2l0.1,0.2l0.2,0l-0.1,0.1l0.1,0.1l-0.2,0v0.2L51,15.1l-0.1,0.1v-0.2l-0.2,0l0.1-0.1L50.7,14.8L50.7,14.8z
	 M51.9,16.7l0.2,0l0.1-0.2l0.1,0.2l0.2,0l-0.1,0.1l0.1,0.1l-0.2,0v0.2l-0.1-0.1L52,17.2V17l-0.2,0l0.1-0.1L51.9,16.7L51.9,16.7z
	 M52.6,15.2c0-0.1-0.1-0.1-0.1-0.1c-0.1,0-0.1,0.2-0.2,0.2c-0.1,0-0.1,0-0.1-0.1c0-0.1,0.1-0.1,0.2-0.1c-0.6,0-0.7,0.3-0.8,0.3
	c-0.2,0,0.1-0.3,0.2-0.4c-0.1,0-0.2-0.2-0.3-0.3c0.1-0.1,0.1-0.1,0.2,0c0-0.1,0-0.1,0.2-0.1c0.3,0,0.2,0.3,0.3,0.3
	c0,0,0-0.3,0.2-0.3c0.3,0,0.6,0.7,0.3,0.7C52.5,15.3,52.6,15.2,52.6,15.2L52.6,15.2z M51.9,13l0.1-0.1l-0.1-0.1l0.2,0l0.1-0.2
	l0.1,0.2l0.2,0l-0.1,0.1l0.1,0.1l-0.2,0v0.2l-0.1-0.1L52,13.2v-0.2L51.9,13L51.9,13z M51.6,12.3v2.1h-1v-2.1H51.6L51.6,12.3z
	 M53.6,22.8l-2.4-1.4c-0.4-0.3-0.6-0.7-0.6-1.3v-2.3h3V22.8L53.6,22.8z M52.7,17.6v-1.9h0.9v1.9H52.7L52.7,17.6z M56.6,23l-1.1,0.7
	h0c-0.1,0.1-0.2,0.1-0.3,0.1c-0.1,0-0.2,0-0.3-0.1L53.8,23v-5.2h2.8V23L56.6,23z M56.6,17.6h-2.8v-5.3h2.8V17.6L56.6,17.6z
	 M59.9,20.1c-0.1,0.6-0.2,1.1-0.6,1.3l-2.4,1.4v-5h3V20.1L59.9,20.1z M59.9,17.6h-3v-5.3h3V17.6L59.9,17.6z"/>
<path class="st2" d="M53.4,19.7c0,0-0.4,0.1-0.3,0.1c0-0.1,0.2-0.3,0.3-0.4c0-0.1-0.2,0-0.3,0.1c0.6-0.8,0.2-0.5-0.1-0.4
	c0.5-0.5,0.4-0.5,0-0.4c0.3-0.2,0.4-0.5,0.3-0.6c-0.3,0.4-0.5,0.3-0.5,0.6c0,0.2-0.1,0.6-0.2,0.7c-0.1,0.2,0-0.6-0.4-0.6
	c-0.1,0-0.4,0-0.5,0.1c0.1,0,0.2,0.2,0.2,0.3c0,0.1,0.1,0.3-0.1,0.3c-0.1,0-0.3-0.3-0.3-0.4c0-0.1,0-0.1,0-0.3
	c0-0.3-0.5-0.8-0.7-0.8c0,0.2,0.3,0.3,0.3,0.6c-0.1,0-0.3-0.2-0.3-0.1c0,0.1,0.2,0.2,0.2,0.3c0,0.1-0.2,0-0.2,0.1
	c0,0.1,0.1,0.1,0.1,0.2c-0.1,0-0.2,0-0.2,0c0,0,0,0.1,0.1,0.1c0,0-0.1,0.1-0.1,0.3c0,0.6,0.4,0.9,0.7,0.9c0.2,0,0.2-0.1,0.2-0.2
	c0,0.1,0.1-0.1,0.1,0.1c0,0.2-0.2,0.1-0.2,0.3c0,0.2,0.3,0,0.3,0.2c0,0.3,0,0.3,0,0.4c0,0.1,0.3-0.1,0.3-0.1c0.1,0,0.1,0.3,0.2,0.3
	c0.1,0,0.1-0.2,0.2-0.3c0,0,0.3,0.2,0.3,0.1c0-0.3-0.1-0.2-0.1-0.4c0-0.2,0.4-0.2,0.3-0.2c-0.1-0.1-0.1,0-0.1-0.2
	c0,0-0.3-0.5,0.1-0.2C53.4,20.6,53.4,19.7,53.4,19.7L53.4,19.7z"/>
<path class="st2" d="M64,21.8c0.2,0,0.3-0.1,0.3-0.3c0-0.2-0.1-0.3-0.3-0.3c-0.2,0-0.3,0.1-0.3,0.3C63.7,21.7,63.8,21.8,64,21.8
	L64,21.8z"/>
<path class="st2" d="M62.7,22.6c0.2,0,0.3-0.1,0.3-0.3c0-0.2-0.1-0.3-0.3-0.3s-0.3,0.1-0.3,0.3C62.3,22.4,62.5,22.6,62.7,22.6
	L62.7,22.6z"/>
<path class="st2" d="M47,24.4c0.2,0,0.3-0.1,0.3-0.3c0-0.2-0.1-0.3-0.3-0.3c-0.2,0-0.3,0.1-0.3,0.3C46.7,24.2,46.8,24.4,47,24.4
	L47,24.4z"/>
<path class="st2" d="M48,24.5c0.2,0,0.3-0.1,0.3-0.3c0-0.2-0.1-0.3-0.3-0.3c-0.2,0-0.3,0.1-0.3,0.3C47.7,24.3,47.8,24.5,48,24.5
	L48,24.5z"/>
<path class="st2" d="M76.2,10.8c0.5,0.6,0.6,1.5,0.2,2.2c-0.2,0-0.2-0.3-0.2-0.4c-0.3-0.6-0.6-1.5-0.3-2.2
	C76.2,10.4,76.1,10.7,76.2,10.8L76.2,10.8z"/>
<path class="st2" d="M34.8,11.6c-0.1,0.4-0.1,1,0,1.4c-0.1,0.1-0.1-0.1-0.2-0.1c-0.7-0.5-0.4-1.4-0.5-2.1c0-0.1,0.1-0.1,0.2,0
	C34.6,10.9,34.8,11.2,34.8,11.6L34.8,11.6z"/>
<path class="st2" d="M77.7,11.6c0.1,0.2-0.1,0.4-0.2,0.5c-0.2,0-0.3-0.1-0.4-0.2c-0.1-0.2,0.1-0.4,0.2-0.5
	C77.4,11.4,77.6,11.5,77.7,11.6L77.7,11.6z"/>
<path class="st2" d="M33.8,12.4c0,0.2-0.1,0.3-0.2,0.4c-0.1,0-0.3,0-0.3-0.1c-0.1-0.1-0.1-0.2-0.1-0.4c0.1-0.1,0.2-0.1,0.3-0.2
	C33.6,12.2,33.7,12.2,33.8,12.4L33.8,12.4z"/>
<path class="st2" d="M78.4,12.7c0,0.1,0,0.2,0,0.3c-0.1,0.2-0.3,0.2-0.5,0.2c-0.1-0.1-0.2-0.2-0.2-0.3c0-0.1,0.2-0.3,0.3-0.3
	C78.2,12.5,78.3,12.6,78.4,12.7L78.4,12.7z"/>
<path class="st2" d="M77.4,12.7c0.1,0.1,0,0.2,0,0.4c-0.1,0.1-0.2,0.2-0.4,0.2c-0.1-0.1-0.2-0.1-0.2-0.2c0-0.2,0.1-0.3,0.2-0.4
	C77.2,12.6,77.3,12.7,77.4,12.7L77.4,12.7z"/>
<path class="st2" d="M76.1,13c0,0.2,0,0.4-0.2,0.5c-0.2,0.1-0.3-0.1-0.4-0.2c0-0.2,0.1-0.3,0.3-0.4C75.9,12.8,76.1,12.9,76.1,13
	L76.1,13z"/>
<path class="st2" d="M35.7,13.1c0.1,0.2-0.1,0.3-0.2,0.4c-0.1,0-0.3-0.1-0.3-0.2c-0.1-0.1,0-0.2,0.1-0.3
	C35.3,12.7,35.6,12.9,35.7,13.1L35.7,13.1z"/>
<path class="st2" d="M34.6,13.1c0,0.1-0.1,0.3-0.2,0.3c-0.1,0.1-0.3-0.1-0.3-0.2c-0.1-0.2,0-0.3,0.2-0.4
	C34.4,12.8,34.6,13,34.6,13.1L34.6,13.1z"/>
<path class="st2" d="M72,13.2c0.2,0.4,0.3,0.8,0.3,1.3c-0.1,0.3,0.1,0.8-0.2,1c-0.2-0.1-0.3-0.4-0.4-0.5c-0.3-0.6,0-1.3,0.1-1.9
	C71.9,12.9,71.9,13.1,72,13.2L72,13.2z"/>
<path class="st2" d="M33.8,13.4c0.1,0.2-0.1,0.3-0.2,0.4c-0.2,0.1-0.3-0.1-0.4-0.2c0-0.2,0.1-0.4,0.2-0.4
	C33.6,13.1,33.7,13.2,33.8,13.4L33.8,13.4z"/>
<path class="st2" d="M74.7,13.9c0.2,0.5,0.2,1.1,0.1,1.7l-0.1,0.1c-0.2-0.5-0.6-0.9-0.7-1.4c0-0.4,0.1-0.7,0.2-1
	c0.1-0.1,0.2,0,0.2,0.1C74.4,13.6,74.5,13.8,74.7,13.9L74.7,13.9z"/>
<path class="st2" d="M76.9,13.6c0,0.2-0.1,0.4-0.3,0.4c-0.2,0-0.3,0-0.4-0.2c-0.1-0.2,0.1-0.3,0.2-0.4
	C76.6,13.3,76.8,13.4,76.9,13.6L76.9,13.6z"/>
<path class="st2" d="M34.6,14.1c0,0.1-0.1,0.3-0.3,0.3c-0.1,0.1-0.2-0.1-0.4-0.1c-0.1-0.1-0.1-0.3,0-0.4c0.1-0.1,0.2-0.1,0.3-0.1
	C34.5,13.9,34.6,13.9,34.6,14.1L34.6,14.1z"/>
<path class="st2" d="M35.4,14c0.1,0.2-0.1,0.3-0.2,0.3c-0.2,0.1-0.3-0.1-0.4-0.2c0-0.2,0.1-0.3,0.2-0.4C35.2,13.7,35.3,13.9,35.4,14
	L35.4,14z"/>
<path class="st2" d="M77.4,14c0,0.2-0.4,0.4-0.4,0.7c-0.2,0.5-0.6,0.8-1.1,1c-0.1,0.1-0.2,0.2-0.4,0.2c0-0.3,0.3-0.7,0.5-1
	C76.3,14.4,76.8,14.1,77.4,14L77.4,14z"/>
<path class="st2" d="M34.3,14.7c0.3,0.3,0.4,0.6,0.7,0.8c0,0.1,0,0.2-0.1,0.2c-0.8-0.1-1.4-0.9-1.8-1.5c0.1-0.2,0.3,0,0.4-0.1
	C33.7,14.3,34.1,14.4,34.3,14.7L34.3,14.7z"/>
<path class="st2" d="M77.6,14.9c0,0.7-0.4,1.5-1.1,1.9c-0.2,0.1-0.4,0.3-0.6,0.1c0.4-0.7,0.9-1.4,1.5-2H77.6L77.6,14.9z"/>
<path class="st2" d="M74.3,15.5c0,0.3-0.1,0.4-0.3,0.5c-0.2,0-0.3-0.1-0.4-0.3c0-0.2,0.1-0.3,0.2-0.4c0.1-0.1,0.1-0.1,0.2-0.1
	C74.1,15.3,74.2,15.4,74.3,15.5L74.3,15.5z"/>
<path class="st2" d="M33.3,15.6c0.3,0.2,0.6,0.5,0.9,0.8c-0.2,0.2-0.5,0-0.8,0c-0.6-0.2-1-0.7-1.6-0.9c0-0.2,0.2-0.1,0.4-0.2
	C32.7,15.4,33,15.5,33.3,15.6L33.3,15.6z"/>
<path class="st2" d="M51.9,10.5c-1-0.4-1.6,0.6-2.6,0.5c-0.1,0.1-0.1,0.2-0.2,0.3c-0.1,0.1-0.1,0-0.2,0c-0.1-0.4-0.2-0.8-0.2-1.2
	c-0.1-0.2-0.1-0.4-0.1-0.6c-0.6-1.5,1.4-0.4,1.7-1.3c0.3-0.8-0.6-0.9-0.9-1.4V6.6c-0.3-0.3-0.6-0.4-0.7-0.7c0.1-0.4,0.2-0.9,0.1-1.3
	c0-0.1-0.1-0.2-0.2-0.2c-0.3,0.5-0.6,0.8-0.9,1.3c-0.3-0.2-0.6-0.6-1-0.8c-0.3,0-0.5-0.3-0.8-0.2c-0.1,0.1,0,0.2,0.1,0.3
	c0,0.7,0.4,1.2,0.8,1.7l0.1,0.3c-0.3,0.7-0.2,1.5-0.3,2.3c-0.8,2-2,3.9-3.8,5.3c-1,1.1-2.2,2.2-2.3,3.7c-0.1,0.2,0,0.5-0.2,0.7
	c-0.6-0.2-1.1-0.5-1.6-0.9c-0.8-0.6-1.9-0.5-2.5-1.5c-0.2-0.4,0.1-0.8,0.2-1.1c0.6-0.6,0.5-1.6,0.2-2.2c-0.1,0-0.1,0.1-0.1,0.1
	c-0.1,1-0.9,1.7-0.6,2.9c0.1,0.3,0.2,0.5,0.3,0.9c-0.1,0-0.3,0-0.4-0.1c-0.4-0.1-0.8-0.2-1.2-0.2c-0.8,0.4-1.9-0.1-2.5,0.6
	c-0.1,0-0.2,0-0.2,0.2c0.4,0,0.7,0.1,1.1,0.1c0.6,0.1,1-0.4,1.4-0.6h0.1c0.2-0.2,0.5-0.1,0.7-0.1c1.1,0.1,1.9,0.6,2.8,1.2v0.1
	c-0.3,0.2-0.7,0.3-1.1,0.5c-0.4,0.3-0.8,0.7-1,1.2c-0.3,0.4,0.1,0.8,0.3,1.2c0,0.2,0,0.4,0.2,0.5c0.6-0.6,0-1.3,0.1-2
	c0.1-0.5,0.6-0.8,1.1-0.9c1-0.4,1.7,0.4,2.5,0.8c0,0.8,0.1,1.6-0.1,2.4c-0.2,0.1-0.6,0.1-0.8,0.1c-1.4,0.1-2.4,0.9-3.7,1.3
	c-0.6,0.2-1.2,0.2-1.8,0.4c0.4,0.1,0.9,0,1.3-0.1c1.7-0.2,3-1.6,4.8-1.3l0,0.1c-0.2,0.4-0.5,0.8-0.8,1.1c-0.1-0.2-0.1-0.4-0.2-0.5
	c-0.1-0.1-0.3,0-0.4,0.1c-0.1,0.1-0.1,0.2,0,0.3c0.1,0.2,0.2,0.2,0.4,0.2c0,0.2-0.2,0.2-0.3,0.4c-0.5,0.8-1.5,0.5-2,1.1
	c-0.1,0.1-0.4,0.2-0.3,0.4c0.7,0.1,1.3-0.1,1.8-0.5c0.6-0.7,1.3-1.4,2-2.1c0.1,0.6-0.1,1.1-0.4,1.6c-0.2-0.1-0.3-0.2-0.5-0.3
	c-0.2,0-0.3,0.2-0.3,0.4c0.1,0.1,0.1,0.3,0.3,0.3c-0.6,0.4-1.3,0.5-2,0.6c-1.3,0.2-2.5,0.3-3.8,0.3c-0.6,0-1.3,0.2-1.9,0
	c-0.7,0.1-1.4-0.1-1.9,0.3c-0.1,0.1,0,0.2,0,0.3c0.8,0.5,1.9,0.1,2.8,0.3h6.8c0.5,0,1,0,1.4-0.3c0.9-0.5,1.4-1.4,1.8-2.3
	c0.2-0.3,0.3-0.7,0.4-1c0.2-0.6,0.7-1,1.3-1.1c0.1,0.9-0.1,1.8-0.3,2.6c-0.1,0.6-0.5,1.1-0.2,1.7c0.1,0.3,0.3,0.3,0.6,0.3
	c2.1,0,4.2-0.1,6.4,0c0.4,0.1,0.7,0.2,1.2,0.2c0-0.1,0.2-0.1,0.1-0.2c-0.1-0.2-0.2-0.4-0.4-0.5c0-0.1-0.2-0.1-0.2-0.1
	c-1.1-0.6-2.4-0.3-3.7-0.3c-0.7,0.1-1.3,0.2-1.9-0.2c-0.3-0.3-0.1-1.3-0.1-1.3c0-0.4,1-3.1,1.1-3.4c0-0.3,0.1-0.5,0.1-0.8
	c0.1-0.4,0.1-0.8,0.1-1.2c0.1-0.6,0.3-1.1,0.5-1.6c0.1-0.3,0.2-0.5,0.3-0.8c0.1-0.3,0.1-0.6,0.3-0.9c0.6,0.4,1.1,0.3,1.4,1l0.2,1.4
	c0,0.1,0.1,0.3,0.2,0.2c0.5-0.3,0.3-1,0.3-1.4c0.1-0.5-0.3-0.8-0.4-1.3c-0.1-0.1-0.3-0.5-0.3-0.5c-0.1-0.4-0.9-0.6-0.7-1.1
	c0.1-0.4,0.2-0.8,0.6-1c0.1,0,0.1,0.1,0.1,0.1l0.2-0.1l0-1.5c0.6,0,1.4,0.1,2,0.1c0.2,0.1,0.3,0.2,0.4,0.2l0.1-0.2l1.4-0.3
	C52.8,11.1,52.4,10.5,51.9,10.5L51.9,10.5z"/>
<path class="st2" d="M53.4,11.1c0,0,0.1,0,0.1,0L53.4,11.1L53.4,11.1z"/>
<path class="st2" d="M38.3,15.9c0,0.2-0.1,0.3-0.3,0.4c-0.1-0.1-0.2-0.1-0.3-0.2c-0.1-0.2,0.1-0.3,0.2-0.4
	C38.1,15.7,38.3,15.8,38.3,15.9L38.3,15.9z"/>
<path class="st2" d="M37.2,15.9c0.1,0.1,0.1,0.3,0.1,0.4c-0.1,0.1-0.3,0.2-0.4,0.1c-0.1-0.1-0.2-0.2-0.1-0.4
	C36.9,15.9,37.1,15.8,37.2,15.9L37.2,15.9z"/>
<path class="st2" d="M61.3,16.1C61.3,16.1,61.3,16.1,61.3,16.1"/>
<path class="st2" d="M74.4,16.4c0.1,0.2-0.1,0.3-0.2,0.4c-0.2-0.1-0.4-0.1-0.4-0.3c0-0.1,0.1-0.2,0.3-0.3
	C74.2,16.2,74.4,16.3,74.4,16.4L74.4,16.4z"/>
<path class="st2" d="M75.4,16.4c0.1,0.1,0.2,0.2,0,0.3c-0.1,0.1-0.1,0.1-0.2,0.1c-0.2,0-0.4,0-0.4-0.2c0-0.2,0.1-0.3,0.3-0.4
	C75.2,16.2,75.3,16.3,75.4,16.4L75.4,16.4z"/>
<path class="st2" d="M32.9,16.6c-0.1,0.2-0.2,0.3-0.5,0.2c-0.1-0.1-0.1-0.1-0.1-0.2c0-0.1,0.1-0.2,0.2-0.3
	C32.7,16.3,32.8,16.4,32.9,16.6L32.9,16.6z"/>
<path class="st2" d="M38.7,16.9c0,0.1-0.2,0.3-0.3,0.3c-0.2,0-0.3-0.1-0.4-0.2c0-0.1,0.1-0.3,0.2-0.4C38.4,16.6,38.6,16.7,38.7,16.9
	L38.7,16.9z"/>
<path class="st2" d="M37.7,16.8c0.1,0.1,0.1,0.2,0.1,0.3c-0.1,0.1-0.3,0.2-0.4,0.1c-0.1-0.1-0.2-0.2-0.2-0.3
	c0.1-0.1,0.2-0.2,0.3-0.2C37.5,16.6,37.6,16.7,37.7,16.8L37.7,16.8z"/>
<path class="st2" d="M78,17c0,0.1-0.1,0.3-0.2,0.3c-0.1,0.1-0.3,0-0.4-0.1c-0.1,0-0.1-0.2-0.1-0.3c0.1-0.1,0.2-0.2,0.3-0.2
	C77.8,16.8,77.9,16.9,78,17L78,17z"/>
<path class="st2" d="M79.1,17.1c-0.1,0.2-0.2,0.3-0.3,0.3c-0.1,0-0.3-0.1-0.3-0.2c0-0.1,0.1-0.2,0.2-0.3
	C78.9,16.9,79.1,17,79.1,17.1L79.1,17.1z"/>
<path class="st2" d="M34.8,17.4c0,0.2,0,0.3-0.2,0.4c-0.1,0.1-0.2,0-0.3-0.1c-0.1-0.1-0.2-0.2-0.1-0.3c0-0.2,0.2-0.1,0.3-0.2
	C34.7,17.2,34.7,17.2,34.8,17.4L34.8,17.4z"/>
<path class="st2" d="M35.7,17.5c0.1,0.1-0.1,0.2-0.1,0.3c-0.1,0.1-0.2,0.1-0.3,0c-0.1-0.1-0.3-0.3-0.1-0.4
	C35.2,17.2,35.6,17.3,35.7,17.5L35.7,17.5z"/>
<path class="st2" d="M77,17.4c0,0.2-0.1,0.3-0.2,0.4c-0.2,0-0.3-0.1-0.3-0.2c0-0.1,0.1-0.2,0.2-0.3C76.8,17.3,76.9,17.3,77,17.4
	L77,17.4z"/>
<path class="st2" d="M78.4,17.7c0,0.2,0,0.3-0.2,0.4c-0.1,0-0.3,0-0.4-0.1c-0.1-0.1-0.1-0.2-0.1-0.4c0.1-0.1,0.2-0.2,0.4-0.2
	C78.3,17.6,78.3,17.7,78.4,17.7L78.4,17.7z"/>
<path class="st2" d="M34.2,18.1c0.1,0.1-0.1,0.2-0.1,0.2c-0.1,0.1-0.2,0-0.3,0c-0.1-0.1-0.1-0.2-0.1-0.3
	C33.8,17.7,34.1,17.9,34.2,18.1L34.2,18.1z"/>
<path class="st2" d="M77.3,18.4c0.1,0,0,0.1,0,0.2c-0.4,0.2-1,0.3-1.4-0.1c-0.2-0.2-0.5-0.2-0.7-0.4c0.1-0.2,0.4-0.2,0.6-0.3
	C76.4,17.9,76.8,18.4,77.3,18.4L77.3,18.4z"/>
<path class="st2" d="M35,18.3c0,0.1-0.1,0.2-0.1,0.3c-0.1,0.1-0.2,0.1-0.3,0c-0.2-0.1-0.2-0.3-0.1-0.4C34.7,18,34.9,18.1,35,18.3
	L35,18.3z"/>
<path class="st2" d="M36.5,18.4c0.1,0.2,0,0.3-0.2,0.4c-0.1,0.1-0.2,0-0.3-0.1c-0.1-0.1-0.2-0.3-0.1-0.4
	C36.1,18,36.4,18.2,36.5,18.4L36.5,18.4z"/>
<path class="st2" d="M56.5,19.1c0,0.3-0.6,0-0.5,0.4c0.1,0.3,0.1,0.7,0.3,1c0.2,0.2,0.1,0.6,0.1,0.9c-0.1,0.2-0.4,0.4-0.7,0.6
	c-0.5,0-1.2,0.2-1.4-0.4C54.2,21.3,54,21,54,20.7c0.1,0,0.1,0,0.2-0.1c0-0.1-0.1-0.2-0.1-0.3c0.6-0.1-0.2-0.6,0.2-0.6
	c0.4,0.4,1,0.3,1.4,0.7c0.1,0.1,0.1,0.2,0.2,0.2c-0.1-0.4-0.3-0.8-0.3-1.3c0-0.2,0-0.4,0.2-0.6C56.1,18.6,56.4,18.9,56.5,19.1
	L56.5,19.1z"/>
<path class="st2" d="M38,19c0.1,0.2-0.1,0.3-0.2,0.4c-0.2,0.1-0.2-0.1-0.3-0.2c-0.1-0.2,0.1-0.3,0.2-0.3C37.8,18.8,38,18.9,38,19
	L38,19z"/>
<path class="st2" d="M48.7,19.2c0.2,0.7,0.1,1.4-0.2,2c0,0.1,0,0.4-0.2,0.3c-0.5-0.6-0.1-1.6,0.1-2.2C48.5,19.1,48.7,19,48.7,19.2
	L48.7,19.2z"/>
<path class="st2" d="M63.5,19.5c0.2,0.5,0.3,1.1,0,1.6l-0.1,0.1c-0.2-0.4-0.3-0.8-0.4-1.2c0.1-0.3,0.2-0.6,0.2-0.9
	C63.5,19,63.5,19.4,63.5,19.5L63.5,19.5z"/>
<path class="st2" d="M39.4,19.7c-0.1,0.2-0.4,0.3-0.6,0.4c-0.4,0.3-1,0.4-1.5,0.3c0.4-0.6,1.1-1,2-0.8
	C39.3,19.6,39.4,19.6,39.4,19.7L39.4,19.7z"/>
<path class="st2" d="M32.3,20.3c0.6,0.5,0.8,1.1,1.2,1.7c0.1,0.1,0.2,0.1,0.2,0.2c-0.1,0.1-0.3-0.1-0.5-0.1c-0.7-0.3-1.1-1-1.1-1.8
	C32.1,20.3,32.2,20.3,32.3,20.3L32.3,20.3z"/>
<path class="st2" d="M62.8,20.9c0,0.2,0,0.4-0.2,0.4c-0.2,0.1-0.4-0.1-0.4-0.2c-0.1-0.1,0-0.2,0.1-0.3
	C62.5,20.6,62.8,20.7,62.8,20.9L62.8,20.9z"/>
<path class="st2" d="M70.1,21.8c0-0.3,0.1-0.6,0.1-1c0.1-0.1,0.1-0.2,0.1-0.4c0.4-0.6,1.3-0.4,1.9-0.3c0.3,0.1,0.6,0.1,0.9,0.2
	c0.1-0.1,0.3-0.1,0.4-0.1c0.6-0.3,0.2-0.9,0.2-1.4l-0.2-0.5c-0.1-0.1-0.1-0.2-0.1-0.3c-0.1-0.1-0.2-0.3-0.3-0.5
	c-0.3-0.8-0.9-1.2-1.3-1.8c-0.9-1.2-2.3-1.8-3.6-2.2c-1.4-0.5-2.7,0.1-4,0.6c-0.4-0.1-0.6-0.4-0.7-0.7c-0.1-0.7,0.1-1.3,0.3-1.8
	c0.1-0.4,0.3-0.8,0.5-1.2c0.3-1,0.6-1.9,0.7-3c0-0.6-0.4-1.1-0.9-1.4c-0.3-0.1-0.7-0.1-1,0.2c-0.2,0.5-0.7,0.8-1.1,1
	c0,0.3,0.3,0.1,0.4,0.2c0.4,0.1,0.8-0.1,1.1,0.2c0,0.7-0.4,1.3-0.7,1.8c-0.6,0.9-1.2,1.8-1.6,2.7l-0.1-0.1l0.1,4.3
	c0.6,0.9,1.2,2,2.3,2.3c0.6,0.5,1.2,1,2,0.6c0.4-0.1,0.4,0.4,0.6,0.7c0.2,0.6-0.3,1.1-0.3,1.7l-0.5,1c-0.5,1-1,2.1-1.8,2.9
	c-0.3,0-0.4,0.3-0.7,0.3c-0.1,0.2-0.4,0.1-0.6,0.1c-0.5,0.2-1.3,0.1-1.7,0.6c0,0.1,0.1,0.1,0.1,0.1c1.1,0,2.2,0.1,3.4,0
	c0.1-0.1,0.3-0.2,0.3-0.3c-0.2-0.3,0.1-0.6,0.2-0.8c0.1-0.4,0.4-0.7,0.5-1.1c0.4-0.7,0.8-1.4,1.2-2.1l0.5-0.9c0.1-0.3,0.3-0.7,0.5-1
	c0.1-0.1,0.2-0.3,0.3-0.5c0-0.2-0.1-0.2-0.2-0.4c0.1-0.1,0.3-0.1,0.5-0.1c0.4,0.3,0.9,0.7,1,1.2l0.2,0.5l0.1,0.2l0,0.6l0.1,0.5
	c0.1,0.8-0.1,1.7-0.2,2.5c-0.3,1-1.5,0.9-2.3,1.1c-0.2,0.1-0.6,0.1-0.6,0.4c1,0.2,2.2,0.1,3.3,0.1c0.2-0.1,0.2-0.2,0.3-0.4
	c0-0.2,0.3-0.4,0.2-0.7c-0.2-0.2,0-0.6-0.1-1c0-0.1,0-0.2,0-0.3c0.1-0.5,0.1-1.1,0.2-1.6L70.1,21.8L70.1,21.8z"/>
<path class="st2" d="M78.7,21.1c-0.6,0.8-1.1,1.7-2.1,2c-0.1,0-0.1,0-0.2-0.1c0.6-0.6,0.9-1.6,1.8-1.8C78.3,21.1,78.5,21,78.7,21.1
	L78.7,21.1z"/>
<path class="st2" d="M31.4,22c-0.1,0.1,0,0.2-0.2,0.2c-0.1,0.1-0.3,0-0.4-0.2c-0.1-0.2,0.1-0.4,0.2-0.4C31.3,21.7,31.4,21.8,31.4,22
	L31.4,22z"/>
<path class="st2" d="M36.4,22.2c0.1,0.2-0.1,0.2-0.2,0.2c-0.7,0.3-1.5,0-2-0.5c0-0.1,0-0.1,0.1-0.2C35,21.9,35.8,21.8,36.4,22.2
	L36.4,22.2z"/>
<path class="st2" d="M32.4,22c0,0.1,0.1,0.2,0,0.3c-0.1,0.2-0.3,0.2-0.4,0.2c-0.1-0.1-0.2-0.1-0.2-0.2c0-0.2,0.2-0.3,0.3-0.3
	C32.2,21.8,32.3,21.9,32.4,22L32.4,22z"/>
<path class="st2" d="M48.6,22.1c0,0.2-0.1,0.3-0.2,0.3c-0.2,0-0.3,0-0.4-0.1c-0.1-0.1,0-0.3,0.1-0.3C48.3,21.9,48.5,21.9,48.6,22.1
	L48.6,22.1z"/>
<path class="st2" d="M79.3,22.1c0.1,0.2-0.1,0.3-0.2,0.4c-0.1,0.1-0.2,0-0.3-0.1c0-0.1-0.1-0.2-0.1-0.3c0.1-0.2,0.2-0.2,0.4-0.2
	C79.2,22,79.2,22,79.3,22.1L79.3,22.1z"/>
<path class="st2" d="M80.4,22.1c0.1,0.2,0,0.3-0.1,0.4c-0.1,0.1-0.2,0.2-0.3,0.1c-0.1-0.1-0.2-0.2-0.3-0.3c0-0.1,0.2-0.2,0.3-0.3
	C80.2,21.9,80.3,22.1,80.4,22.1L80.4,22.1z"/>
<path class="st2" d="M30.7,22.6c0,0.1-0.1,0.2-0.1,0.3c-0.1,0-0.2,0.1-0.3,0.1c-0.1-0.1-0.2-0.2-0.3-0.3c0-0.2,0.1-0.3,0.3-0.3
	C30.5,22.3,30.7,22.4,30.7,22.6L30.7,22.6z"/>
<path class="st2" d="M67.1,22.6c0,0.1,0,0.2,0,0.2c-0.1,0.1-0.2,0.3-0.4,0.2c-0.1-0.1-0.2-0.2-0.2-0.4C66.7,22.4,67,22.3,67.1,22.6
	L67.1,22.6z"/>
<path class="st2" d="M33.5,22.8c0,0.1-0.1,0.2-0.2,0.3c-0.2,0-0.2-0.1-0.3-0.2c0-0.2,0-0.3,0.1-0.4C33.3,22.4,33.5,22.6,33.5,22.8
	L33.5,22.8z"/>
<path class="st2" d="M31.8,22.9c0.1,0.2-0.1,0.3-0.2,0.4c-0.2,0.1-0.4-0.1-0.5-0.2c0-0.2,0.1-0.3,0.3-0.4
	C31.7,22.6,31.8,22.8,31.8,22.9L31.8,22.9z"/>
<path class="st2" d="M68.3,22.8c0,0.2,0,0.3-0.2,0.4c-0.2,0.1-0.4-0.1-0.5-0.2c0.1-0.1,0.1-0.3,0.3-0.4
	C68.1,22.6,68.2,22.7,68.3,22.8L68.3,22.8z"/>
<path class="st2" d="M32.7,22.9c0.1,0.1-0.1,0.2-0.1,0.3c-0.1,0-0.1,0.1-0.2,0.1c-0.1-0.1-0.2-0.1-0.2-0.2c0-0.2,0.1-0.3,0.2-0.3
	C32.5,22.6,32.6,22.8,32.7,22.9L32.7,22.9z"/>
<path class="st2" d="M78.4,23c-0.1,0.1-0.2,0.2-0.3,0.3c-0.1,0-0.2-0.1-0.3-0.1c-0.1-0.1-0.1-0.2,0-0.3C77.9,22.6,78.4,22.7,78.4,23
	L78.4,23z"/>
<path class="st2" d="M79.7,23.1c-0.1,0.2-0.2,0.3-0.4,0.3c-0.2-0.1-0.3-0.2-0.2-0.4c0.1-0.1,0.1-0.1,0.2-0.2
	C79.5,22.8,79.6,22.9,79.7,23.1L79.7,23.1z"/>
<path class="st2" d="M71.5,23.2c0.1,0.2-0.1,0.3-0.3,0.4c-0.1,0-0.2-0.1-0.3-0.1c0-0.2,0.1-0.4,0.2-0.5C71.3,23,71.4,23.1,71.5,23.2
	L71.5,23.2z"/>
<path class="st2" d="M66.7,23.4c0.1,0,0,0.2,0,0.2c-0.1,0.1-0.2,0.2-0.4,0.1c-0.1-0.1-0.2-0.2-0.2-0.3
	C66.3,23.3,66.6,23.2,66.7,23.4L66.7,23.4z"/>
<path class="st2" d="M67.7,23.6c0,0.1,0,0.2-0.1,0.3c-0.1,0.1-0.3,0-0.4-0.1c0-0.1-0.1-0.2,0-0.3c0-0.1,0.1-0.1,0.2-0.1
	C67.5,23.4,67.6,23.4,67.7,23.6L67.7,23.6z"/>
<path class="st2" d="M38.3,23.6c0.1,0.1,0,0.2,0,0.3C38.2,24,38,24.1,37.9,24c-0.2-0.1-0.2-0.3-0.1-0.4c0.1,0,0.1-0.2,0.2-0.2
	C38.1,23.4,38.2,23.5,38.3,23.6L38.3,23.6z"/>
<path class="st2" d="M73.3,23.6c0,0.2-0.1,0.2-0.3,0.3c-0.2,0.1-0.3-0.1-0.4-0.2c0-0.1,0.1-0.2,0.1-0.3C73,23.3,73.2,23.5,73.3,23.6
	L73.3,23.6z"/>
<path class="st2" d="M72.4,23.6c0.1,0.2-0.1,0.3-0.2,0.4c-0.1,0.1-0.3,0-0.4-0.1c-0.1-0.1-0.1-0.2-0.1-0.3c0.1-0.1,0.2-0.2,0.3-0.2
	C72.1,23.4,72.3,23.5,72.4,23.6L72.4,23.6z"/>
<path class="st2" d="M80.2,23.9c0,0.2-0.3,0.1-0.4,0.2c-0.7,0.4-1.7,0.1-2.4-0.2c0.1-0.2,0.3-0.1,0.4-0.2
	C78.6,23.2,79.4,23.8,80.2,23.9L80.2,23.9L80.2,23.9z"/>
<path class="st2" d="M32.8,23.6l-0.1,0.1c-0.6,0.4-1.5,0.6-2.2,0.4l-0.1-0.1C31.1,23.6,32,23.5,32.8,23.6L32.8,23.6L32.8,23.6z"/>
<path class="st2" d="M75.1,23.8c0,0.1-0.1,0.3-0.2,0.3c-0.2,0.1-0.4,0-0.5-0.2c0-0.1,0.1-0.3,0.2-0.3C74.8,23.6,75,23.6,75.1,23.8
	L75.1,23.8z"/>
<path class="st2" d="M35.9,23.8c-0.1,0.1,0,0.3-0.2,0.3c-0.2,0.1-0.4-0.1-0.4-0.2c-0.1-0.2,0.1-0.2,0.2-0.3
	C35.7,23.5,35.8,23.7,35.9,23.8L35.9,23.8z"/>
<path class="st2" d="M34.7,23.9c0,0.1-0.1,0.2-0.1,0.3c-0.1,0.1-0.2,0.1-0.3,0.1c-0.1-0.1-0.2-0.2-0.2-0.4c0.1-0.1,0.2-0.1,0.3-0.2
	C34.5,23.7,34.7,23.7,34.7,23.9L34.7,23.9z"/>
<path class="st2" d="M76.3,24.3c0,0.2-0.1,0.3-0.3,0.3c-0.1,0-0.3-0.1-0.3-0.2c-0.1-0.1,0-0.2,0.1-0.3c0-0.1,0.2-0.1,0.2-0.1
	C76.1,24.1,76.2,24.2,76.3,24.3L76.3,24.3z"/>
<path class="st2" d="M33.4,24.1c0.1,0.1-0.1,0.2-0.1,0.3c-0.1,0.3-0.2,0.5-0.4,0.8c-0.3,0.4-0.8,0.4-1.3,0.5l-0.1-0.1
	C32.1,24.9,32.7,24.4,33.4,24.1L33.4,24.1L33.4,24.1z"/>
<path class="st2" d="M75.4,24.5c0,0.2-0.1,0.2-0.3,0.3c-0.2,0-0.3-0.1-0.3-0.2c-0.1-0.2,0.1-0.3,0.2-0.3
	C75.2,24.3,75.4,24.4,75.4,24.5L75.4,24.5z"/>
<path class="st2" d="M35.4,24.5C35.4,24.5,35.4,24.6,35.4,24.5c0,0.3-0.1,0.3-0.2,0.4c-0.2,0-0.3-0.1-0.4-0.2
	c-0.1-0.2,0-0.3,0.2-0.4C35.2,24.3,35.4,24.4,35.4,24.5L35.4,24.5z"/>
<path class="st2" d="M78.6,25c0.2,0,0.2-0.2,0.4-0.3c0.2,0,0.3,0.1,0.4,0.2c0.1,0.2-0.1,0.3-0.2,0.4c-0.1,0.1-0.4-0.1-0.4,0.1
	c0.1,0.1,0.2,0.2,0.2,0.3c0,0.1-0.2,0.1-0.2,0c-0.5-0.2-1-0.6-1.2-1.1c-0.1-0.2-0.4-0.3-0.2-0.4C77.9,24.3,78.3,24.7,78.6,25
	L78.6,25z"/>
<path class="st2" d="M80.3,24.5c0.1,0.1,0.1,0.2,0,0.3c-0.1,0.2-0.3,0.1-0.5,0.1c-0.1-0.1-0.2-0.2-0.1-0.3c0.1-0.1,0.1-0.2,0.3-0.2
	C80,24.3,80.1,24.4,80.3,24.5L80.3,24.5z"/>
<path class="st2" d="M74,25.4c0.2,0.2,0.3,0.5,0.4,0.7c0,0.1-0.1,0-0.2,0c-0.6-0.3-1.3-0.7-1.6-1.4c-0.1-0.1-0.2-0.2-0.2-0.3
	c0.4-0.1,0.9,0.2,1.2,0.5C73.8,25.2,73.9,25.2,74,25.4L74,25.4z"/>
<path class="st2" d="M34.5,24.8c0.1,0.2-0.1,0.3-0.2,0.3c-0.2,0-0.3,0-0.4-0.1c-0.1-0.2,0.1-0.4,0.2-0.4
	C34.3,24.5,34.4,24.7,34.5,24.8L34.5,24.8z"/>
<path class="st2" d="M76.1,25.2c0,0.1-0.1,0.2-0.2,0.2c-0.1,0-0.3,0.1-0.4-0.1c0-0.1-0.1-0.2,0-0.3C75.7,24.8,76,25,76.1,25.2
	L76.1,25.2z"/>
<path class="st2" d="M80.4,25.4c0.1,0.2-0.1,0.3-0.2,0.4c-0.2,0.1-0.3-0.1-0.4-0.2c-0.1-0.1,0-0.2,0-0.3c0.1-0.1,0.3-0.2,0.5-0.1
	C80.3,25.3,80.4,25.3,80.4,25.4L80.4,25.4z"/>
<path class="st2" d="M68.5,27.8c0,0.2-0.4,0.2-0.5,0.3c-0.5,0.3-1.2,0.3-1.8,0.3v-0.1C66.8,27.8,67.7,27.6,68.5,27.8L68.5,27.8z"/>
<path class="st2" d="M43.3,28.6c0,0.2-0.1,0.2-0.3,0.3c-0.1,0-0.2-0.1-0.3-0.2c-0.1-0.2,0.1-0.3,0.2-0.4
	C43.1,28.3,43.2,28.4,43.3,28.6L43.3,28.6z"/>
<path class="st2" d="M68.2,28.8c0,0.2-0.1,0.3-0.3,0.4c-0.2,0-0.3-0.1-0.4-0.1c-0.1-0.1,0-0.2,0-0.3C67.6,28.4,68.1,28.4,68.2,28.8
	L68.2,28.8z"/>
<path class="st2" d="M71.6,28.8c-0.4,0.3-0.9,0.6-1.5,0.6l-0.9,0l-0.1-0.1c0.6-0.7,1.6-0.7,2.5-0.6V28.8L71.6,28.8z"/>
<path class="st2" d="M38.5,29.2c0,0.2-0.1,0.3-0.2,0.3c-0.2,0-0.3,0-0.4-0.2c-0.1-0.2,0-0.3,0.1-0.4C38.3,28.9,38.4,29.1,38.5,29.2
	L38.5,29.2z"/>
<path class="st2" d="M39.4,29.4c0.1,0.1,0,0.1-0.1,0.2c-0.1,0.1-0.2,0.1-0.3,0c-0.1-0.1-0.2-0.2-0.1-0.3c0.1-0.1,0.2-0.1,0.2-0.2
	C39.2,29.2,39.3,29.3,39.4,29.4L39.4,29.4z"/>
<path class="st2" d="M32.8,31.2c-0.2,0.2-0.4-0.1-0.6-0.2c-0.6-0.3-0.6-1-1.2-1.4c0.1-0.2,0.2,0,0.3,0c0.1,0.1,0.2,0.1,0.4,0.2
	C32.2,30.1,32.4,30.7,32.8,31.2L32.8,31.2z"/>
<path class="st2" d="M83.2,24.4c-0.3-0.5-0.7-0.7-1.3-0.7c-0.4,0-0.8,0.3-1,0.7c-0.1,0.4,0,0.7,0.3,1c0.1,0.1,0.3,0,0.3-0.1
	c0.1-0.2-0.2-0.2-0.2-0.4c-0.1-0.2,0-0.5,0.2-0.6c0.2-0.2,0.5-0.1,0.7-0.1c0.2,0.1,0.4,0.3,0.5,0.5c0.1,0.3,0.1,0.6,0,0.9
	c-0.2,0.4-0.6,0.8-1.1,0.9c-1.4,0.2-17.2,0.1-17.2,0.1c-1.8,0.2-4-0.3-5.5,0.6c-0.7,0.3-1.1,1.2-1.3,1.9c-0.5,0.4-1,0.9-1.4,1.4
	l0-0.1c0.1-0.4,0.3-0.8,0.4-1.2c0.3-0.3,0.3-0.8,0.4-1.2c0.7-1.1,1.3-2.1,2.3-2.9c0.4-0.6,1.2-0.5,1.9-0.5c0.7,0.3,1.5,0.4,2.4,0.3
	c0,0,0-0.1,0-0.1c-0.2-0.2-0.6-0.3-0.9-0.5c-0.7-0.3-1.4,0.1-2.1,0.1c0,0-0.1-0.1-0.1-0.1c0.7-0.5,1.4-0.8,2.1-1.2
	c0.6-0.3,1.2-0.5,1.9-0.7c0.3,0,0.5-0.2,0.7-0.1l0.9-0.2c0,0,0.1,0.1,0.1,0.1c0.8-0.3,1.8,0,2.6,0l0.1,0.1l0.8,0.2
	c0.3,0,0.4,0.4,0.8,0.4c0.2-0.2-0.2-0.3-0.3-0.5c0.4-0.1,0.8,0,1.2,0.2l-0.2,0.2c-0.1,0.2,0.1,0.3,0.2,0.4c0.1,0,0.2-0.1,0.3-0.1
	c0.2-0.2,0-0.3,0.1-0.5c1.3,0.2,2.5,0.5,3.7,1c0.3,0.1,0.6,0.3,1,0.3c-0.4-0.3-0.9-0.5-1.3-0.7c-0.3-0.2-0.7-0.2-0.9-0.4
	c0-0.1,0.2-0.1,0.2-0.1c0.6-0.1,1.1-0.5,1.5-1c0-0.1,0.2-0.1,0.2-0.2c-0.2-0.2-0.4,0.1-0.6,0c-0.7,0.1-1,1-1.8,1.2
	c-0.9-0.2-1.8-0.4-2.7-0.6C71,22,70.5,22,70.1,21.8l-1-0.1h-1.8c0,0-0.1-0.1-0.1-0.1c0.6-0.2,1.2-0.5,1.8-0.7l4.6-2.1
	c0.5-0.4,0.9-0.9,1.3-1.4c0-0.1-0.1-0.3-0.2-0.3c-0.1-0.1-0.3,0-0.3,0.1c-0.2,0.2,0,0.3,0,0.5c-0.2,0.3-0.5,0.5-0.8,0.7
	c-0.1,0-4.8,2.1-4.8,2.1c-0.7,0.3-1.4,0.6-2.1,0.8l-1,0.2c-0.1,0.2-0.2,0.3-0.4,0.4c-0.3,0.1-0.5,0.2-0.8,0.2
	c-2.2,0.9-4.6,1.8-6.4,3.6c0.1-0.2,0.2-0.5,0.2-0.7c0-0.3,0-0.6-0.2-0.8c0-0.1-0.2-0.4-0.1-0.5l-0.3,0.2c-0.2,0.4-0.3,1.1-0.1,1.5
	c0.1,0.3,0.3,0.7,0.1,1c-0.8,1-1.3,2.2-1.9,3.4c-0.2,0-0.3-0.2-0.4-0.4c0.6-0.8,1.1-1.6,1.2-2.5c0.1-0.1,0-0.3,0.2-0.4
	c0-0.3,0.2-0.6,0-0.8c0.1-0.4-0.5-0.7-0.1-1l-0.3,0.2c-0.7,1,0.4,2.4-0.5,3.4v0.1c-0.2,0.3-0.4,0.6-0.7,0.8c-0.4-0.2-0.6-0.6-0.8-1
	c-0.4-0.4-0.4-1.1-0.2-1.6c0.2-0.5-0.1-0.9-0.2-1.4l-0.2-0.1c-0.4,0.5-0.6,1.4-0.2,2c0.2,0.3,0.2,0.7,0.4,1c0.2,0.5,0.5,0.8,0.7,1.3
	c0.1,0.2-0.1,0.2-0.2,0.3c-0.2-0.1-0.2-0.4-0.3-0.5c-0.6-1.2-1.3-2.2-2.2-3.2c0-0.2-0.2-0.3-0.1-0.5c0.3-0.3,0.4-0.9,0.2-1.3
	c0-0.1-0.1-0.2-0.1-0.3L52,23.4c0,0.6-0.4,1.1-0.2,1.8v0c-1.8-1.3-3.8-2.5-5.8-3.5l-0.2,0.4c0.5,0.1,1.9,0.9,1.9,0.9
	c0.6,0.2,1.2,0.6,1.7,0.9c2.4,1.3,3.9,3.5,5,5.9c0,0.2,0.2,0.4,0.1,0.6c-0.4-0.6-0.9-0.9-1.3-1.3c-0.1-0.8-0.6-1.6-1.3-1.9
	c-0.3-0.4-0.8-0.4-1.2-0.5l-6.3,0c-5.1-0.1-9.8,0.2-14.9,0.1c-0.7-0.1-1.6-0.3-1.8-1.1c-0.1-0.3-0.1-0.7,0-1
	c0.2-0.3,0.5-0.4,0.9-0.5c0.3,0,0.5,0.3,0.6,0.5c0,0.2-0.2,0.4-0.3,0.6c0,0.1,0.1,0.2,0.2,0.2c0.2-0.1,0.4-0.3,0.5-0.6
	c0-0.1,0.1-0.3-0.1-0.4c-0.1-0.4-0.5-0.6-0.8-0.7c-0.4,0-0.9,0.1-1.2,0.4c-0.4,0.3-0.4,1-0.3,1.5c0.3,0.8,1.1,1.3,1.9,1.4l16.8,0.1
	c1.6,0.1,3.5-0.2,5.2,0.1c0.6,0.2,1.2,0.6,1.4,1.3c0,0-0.1,0-0.1,0c-1.4-0.9-3.2-1.2-4.9-1c-0.7,0-1.3,0.2-1.9,0.4
	c-0.3,0.1-0.6-0.1-0.8-0.3c-0.6-0.6-1.7-0.5-2.5-0.3c0,0.1,0,0.1,0,0.1c0.8-0.1,1.3,0.7,2.1,0.7c0.2,0,0.3-0.2,0.5,0
	c-0.8,0.4-1.6,0.8-2.4,1.1c-0.3-0.1-0.4-0.3-0.6-0.4c-0.3-0.4-0.9-0.2-1.4-0.2c-0.2,0-0.3-0.1-0.4,0c0.1,0.3,0.4,0.4,0.7,0.6
	c0.4,0.2,0.9,0,1.3,0.2c-0.1,0.1-0.2,0.2-0.4,0.2c-0.8,0.3-1.5,1-2.4,1c-0.9,0.1-1.9-0.2-2.6-0.8c-0.3-0.7-1-1-1.7-1
	c-0.1,0-0.1,0-0.1,0.1c0.4,0.2,0.7,0.7,1.1,0.9c0.2,0.3,0.7,0,0.9,0.3c0.3,0.2,0.7,0.4,1.1,0.5c0.3,0.1,0.6,0.2,0.9,0.2l-0.1,0.1
	c-1.6,0.5-3.4,0.6-5.2,0.5c-0.5,0-1-0.2-1.5-0.2c0.1,0.1,0.3,0.2,0.4,0.2c-0.1,0.1-0.3,0.1-0.5,0.1c-0.2,0.1-0.4,0.1-0.7,0.2
	c-0.3,0-0.5,0.1-0.7,0.2c-0.3,0.3-0.6,0.6-1,0.8c0,0.1,0,0.2,0.1,0.2c0.3-0.1,0.7,0,1.1-0.2c0.6-0.1,0.9-0.7,1.3-0.9
	c0.5-0.4,1.2-0.3,1.8-0.2c0.3,0.1,0,0.2,0.1,0.5c0.1,0.1,0.3,0.3,0.5,0.2c0,0,0.1-0.1,0.1-0.1c0.1-0.1,0.1-0.3,0-0.4
	c0.2-0.2,0.6,0,0.8-0.1c0.7,0,1.3-0.2,2-0.2c0.1,0,0.2-0.1,0.3,0c-0.1,0.1-0.2,0.2-0.2,0.4c0,0.2,0.2,0.2,0.3,0.3
	c0.2-0.1,0.3-0.2,0.3-0.4c0-0.1-0.2-0.1-0.3-0.2c0.4-0.2,0.8-0.2,1.1-0.4c0.3-0.1,0.5-0.1,0.7-0.2c0.2,0,0.4-0.2,0.6-0.1
	c-0.1,0.3-0.2,0.6-0.4,0.8c-0.3,0.9-0.5,2.1,0,3c0.1,0,0.1,0,0.1,0c-0.4-0.9-0.2-2,0.2-2.9c0.2-1.5,1.8-1.9,2.9-2.5l0.1,0.1
	c-0.3,0.8-0.7,1.5-0.7,2.4c0,0.2-0.1,0.3,0,0.4c0.3-0.2,0.5-0.5,0.6-0.8c0.1-0.8-0.3-1.8,0.5-2.3C45,28.7,46.4,28,48,28
	c0.1,0.1,0.2,0,0.2,0.1c-0.3,0.4-0.8,0.7-1,1.2c-0.6,0.8-0.5,2.1-0.3,3c0.2,0.5-0.3,0.8-0.5,1.3c-0.1,0.1-0.1,0.4-0.2,0.6l0.3,0
	c0.3-0.3,0.6-0.7,0.6-1.2c0,0.2,0.2,0.3,0.3,0.3c0.1-0.2-0.1-0.3-0.1-0.5c0.3-0.2,0.4,0.2,0.6,0.3c0.4,0.1,0.7,0.2,1.1,0.2l0.1-0.1
	c-0.4-0.6-1.1-0.7-1.8-0.7c-0.3-0.6-0.3-1.3-0.3-2c0.1-0.4,0.1-0.8,0.3-1.1c0.1-0.2,0.3-0.5,0.5-0.7c0.3-0.3,0.7-0.5,1.1-0.6h0.1
	c0,0,0,0.1,0,0.1c-0.5,0.4-0.5,0.9-0.8,1.3c-0.3,0.4-0.4,1-0.2,1.5c0.1,0.2,0.1,0.6,0.3,0.7c0.2-0.3,0.2-0.7,0.4-1.1
	c-0.1-0.6-0.4-1.1-0.1-1.7c0.2-0.4,0.5-0.6,0.9-0.8c1-0.1,1.8,0.4,2.6,0.8c0.2,0.1,0.5,0.2,0.5,0.5c0,0.5-0.3,0.9-0.6,1.2
	c-0.5,0.3-1.1,0.3-1.6,0c-0.3-0.3-0.4-0.7-0.3-1.1c0.2-0.2,0.5-0.4,0.8-0.3c0.2,0.1,0.3,0.3,0.6,0.2c0.1-0.1,0.1-0.2,0.1-0.3
	c-0.2-0.1-0.3-0.4-0.5-0.4c-0.3-0.1-0.7,0-1,0.2c-0.4,0.3-0.5,0.8-0.4,1.2c0.1,0.6,0.5,1,1.1,1.1c0.8,0.2,1.6-0.1,2.1-0.7
	c0.2-0.2,0.3-0.5,0.4-0.7c0.8,0.5,1.5,1.4,1.8,2.3c0,0.3,0.1,0.6,0,0.9l0.6,0.1c-0.1-0.1,0-0.3,0.1-0.4c0.2-1.1,0.9-2.1,1.8-2.9
	c0.3-0.2,0.2,0.2,0.3,0.3c0.3,0.7,0.9,1.1,1.5,1.3c0.7,0.1,1.4-0.1,1.9-0.6c0.2-0.4,0.5-1,0.1-1.5c-0.2-0.3-0.6-0.5-1-0.5
	c-0.5,0-0.7,0.3-1,0.6c0,0.1,0,0.3,0.1,0.4c0.1,0,0.2,0,0.3-0.1c0-0.3,0.3-0.4,0.5-0.5c0.2-0.1,0.4,0,0.6,0.1
	c0.2,0.2,0.2,0.4,0.2,0.7c0,0.3-0.3,0.7-0.6,0.8c-0.5,0.3-1.2,0.1-1.7-0.2c-0.2-0.2-0.3-0.5-0.5-0.8c0-0.3-0.1-0.5,0-0.8
	c0.8-0.5,1.6-0.8,2.5-0.9c0.4,0.1,0.7,0.3,0.9,0.6c0.8,0.8-0.2,2,0.4,2.9c0.2,0,0.2-0.3,0.3-0.5c0.3-0.6-0.1-1.3-0.2-1.9
	c-0.2-0.4-0.3-0.7-0.7-1c0.1,0,0.1,0,0.2,0c0.4,0.2,0.8,0.5,1.1,0.9c0.5,0.8,0.8,1.8,0.7,2.9c-0.1,0.5-0.7,0.8-1.1,1
	c-0.2,0.1-0.4,0.3-0.5,0.6c0.2,0.1,0.5,0,0.7-0.1c0.3-0.1,0.5-0.5,0.7-0.7c0,0,0,0.1,0,0.1c0,0.2-0.1,0.5,0.1,0.5
	c0.1-0.2,0.1-0.6,0.2-0.9c0.2,0.2,0.3,0.6,0.3,0.9c0.2,0.3,0.4,0.7,0.8,0.8c0.1-0.2,0-0.3-0.1-0.5c-0.1-0.4-0.4-0.7-0.7-1
	c-0.6-0.8-0.3-2.1-0.8-3.1c-0.2-0.5-0.5-0.9-0.9-1.3l0.1-0.1c0.8,0,1.6,0.3,2.3,0.4c1,0.5,2.3,0.4,2.8,1.6c0.2,0.7,0.5,1.3,1,1.9
	l0.1,0c0.1-0.2,0.1-0.5,0-0.6c-0.1-0.9-0.9-1.1-1.3-1.8l0-0.1c0.4,0.1,0.8,0.2,1.3,0.4c1.4,0.4,2.4,1.7,2.5,3.1c0,1.1-0.2,2-0.6,3
	c-0.1,0.1-0.3,0.3-0.1,0.4c0.2-0.1,0.2-0.4,0.3-0.5c0.6-1,0.9-2.3,0.6-3.5c0-0.2-0.3-0.4-0.2-0.6c0.1,0.1,0.2,0.1,0.3,0.2
	c0.1-0.1,0.3-0.1,0.3-0.2c0-0.1,0.1-0.2,0-0.3c-0.1-0.2-0.3-0.2-0.5-0.1c-0.1,0.1-0.2,0.2-0.2,0.4c-0.2-0.3-0.3-0.7-0.6-0.9l0-0.1
	c0.8,0.3,1.5,0.6,2.3,0.9c0.2,0.1,0.4,0.2,0.6,0.2c0.7,0.3,1.4,0.4,2.1,0.5c0.5-0.1,1,0.2,1.5,0.1v0l0,0c-0.2-0.2-0.6,0-0.8-0.2
	c-1.2-0.1-2.3-0.4-3.4-0.9c0-0.1,0.1,0,0.1,0c0.2-0.1,0.3-0.2,0.3-0.4c-0.1-0.1-0.2-0.2-0.4-0.2c-0.1,0.1-0.2,0.2-0.3,0.3
	c0,0.1,0.1,0.3,0.3,0.3c0,0-0.1,0-0.2,0c-0.5-0.2-1.1-0.5-1.6-0.7c-0.2,0-0.3-0.2-0.5-0.2c-0.4-0.2-0.8-0.4-1.2-0.5
	c-1.1-0.6-2.3-0.9-3.5-1.3c-0.3-0.1-0.5-0.1-0.7-0.2c-0.4-0.1-0.9-0.2-1.3-0.3c-1.5-0.4-3.4-0.4-4.7,0.4c-0.2-0.1-0.3,0.3-0.4,0.1
	c0.4-1,1.4-1.3,2.4-1.3c6.9-0.1,13.4-0.1,20.3-0.2c0.8,0,1.6-0.3,2-1C83.3,25.6,83.4,24.9,83.2,24.4L83.2,24.4z M55.7,30.9
	c-0.1,0.2-0.2,0.4-0.2,0.6l-0.1,0c0.1-0.3-0.2-0.4-0.1-0.7c-0.1-0.2-0.1-0.5-0.3-0.7c-0.2-0.3,0.1-0.4,0.3-0.6
	c0.2,0.1,0.3,0.3,0.5,0.5C55.9,30.3,55.7,30.6,55.7,30.9L55.7,30.9z"/>
<path class="st2" d="M74.4,29.8c0,0.1,0.1,0.1,0.1,0.2c-0.6,0.5-1.5,0.7-2.3,0.7c-0.1,0-0.1,0.1-0.2,0.1c-0.1,0-0.1-0.1,0-0.1
	C72.5,29.9,73.5,29.5,74.4,29.8L74.4,29.8z"/>
<path class="st2" d="M71.6,30c0.1,0.2-0.1,0.4-0.3,0.5c-0.2,0-0.3-0.1-0.4-0.3c-0.1-0.1,0.1-0.2,0.1-0.3
	C71.2,29.8,71.6,29.8,71.6,30L71.6,30z"/>
<path class="st2" d="M38.8,30.1c0,0.1,0,0.3-0.1,0.4c-0.1,0.1-0.2,0.1-0.3,0.1c-0.1,0-0.2-0.2-0.2-0.3c0-0.2,0.1-0.2,0.2-0.3
	C38.5,29.9,38.7,29.9,38.8,30.1L38.8,30.1z"/>
<path class="st2" d="M35.7,31.2v0.1c-0.4,0.1-0.8,0-1.1-0.3c-0.2-0.3-0.5-0.7-0.9-0.9c0-0.1-0.1-0.1,0-0.2
	C34.5,30,35,30.7,35.7,31.2L35.7,31.2z"/>
<path class="st2" d="M77.1,30.1c-0.4,0.6-0.7,1.3-1.5,1.6c-0.1,0-0.2,0.2-0.3,0.1c0.3-0.7,0.9-1.4,1.5-1.7C76.9,30,77,30,77.1,30.1
	L77.1,30.1z"/>
<path class="st2" d="M39.8,30.3c0,0.2-0.1,0.2-0.2,0.3c-0.1,0-0.2-0.1-0.3-0.2c-0.1-0.2,0.1-0.2,0.2-0.3
	C39.6,30,39.7,30.1,39.8,30.3L39.8,30.3z"/>
<path class="st2" d="M79.2,30.4c-0.2,0.2-0.1,0.6-0.2,0.8c-0.3,0.4-0.6,0.9-1.2,0.9c-0.1-0.2,0.1-0.3,0.2-0.5
	c0.2-0.5,0.6-1.1,1.1-1.3L79.2,30.4L79.2,30.4z"/>
<path class="st2" d="M30.3,30.5c0.1,0.1,0.1,0.2,0,0.4C30.2,31,30.1,31,29.9,31c-0.2-0.1-0.2-0.3-0.1-0.4
	C29.9,30.4,30.2,30.3,30.3,30.5L30.3,30.5z"/>
<path class="st2" d="M29.3,30.7c0,0.1,0.1,0.2,0,0.2c0,0.1-0.1,0.2-0.2,0.2c-0.2,0-0.3-0.1-0.4-0.2c0-0.2,0-0.3,0.2-0.4
	C29.1,30.5,29.2,30.6,29.3,30.7L29.3,30.7z"/>
<path class="st2" d="M31.4,30.8c0,0.1,0.1,0.4-0.1,0.4c-0.2,0.1-0.4-0.1-0.5-0.2c0-0.2,0.1-0.3,0.2-0.3
	C31.1,30.7,31.3,30.7,31.4,30.8L31.4,30.8z"/>
<path class="st2" d="M34.2,31.1c0,0.1,0,0.3-0.1,0.3c-0.1,0.1-0.2,0.1-0.3,0c0-0.1-0.2-0.2-0.1-0.3c0.1-0.1,0.1-0.1,0.2-0.2
	C34,31,34.1,30.9,34.2,31.1L34.2,31.1z"/>
<path class="st2" d="M80.9,31.2c-0.1,0.1-0.1,0.3-0.3,0.3c-0.2,0-0.3,0-0.4-0.2c-0.1-0.2,0.1-0.3,0.2-0.3
	C80.6,30.9,80.9,31,80.9,31.2L80.9,31.2z"/>
<path class="st2" d="M77.7,31.3c0,0.1-0.1,0.2-0.2,0.3c-0.2,0.1-0.4-0.1-0.5-0.3c0-0.2,0.2-0.3,0.3-0.3C77.5,31,77.6,31.1,77.7,31.3
	L77.7,31.3z"/>
<path class="st2" d="M79.9,31.2c0,0.1-0.1,0.2-0.2,0.3c-0.1,0.1-0.3,0-0.4-0.1c-0.2-0.1,0-0.3,0.1-0.4C79.5,31,79.8,31,79.9,31.2
	L79.9,31.2z"/>
<path class="st2" d="M29.9,31.5c0,0.2,0,0.4-0.2,0.4c-0.2,0-0.3-0.1-0.4-0.2c0-0.2,0-0.3,0.2-0.4C29.6,31.3,29.8,31.4,29.9,31.5
	L29.9,31.5z"/>
<path class="st2" d="M76.9,31.7c0.1,0.2-0.1,0.4-0.2,0.5c-0.1,0-0.2,0-0.3-0.1c-0.1-0.1-0.2-0.3,0-0.4
	C76.4,31.4,76.8,31.5,76.9,31.7L76.9,31.7z"/>
<path class="st2" d="M39.2,31.9c0.1,0.2-0.1,0.2-0.2,0.3c-0.1,0-0.2,0.1-0.3,0c-0.1-0.1-0.2-0.2-0.1-0.4c0.1-0.1,0.1-0.1,0.2-0.2
	C39,31.6,39.1,31.8,39.2,31.9L39.2,31.9z"/>
<path class="st2" d="M80.6,32c0,0.1-0.1,0.2-0.1,0.3c-0.1,0.1-0.3,0.1-0.4,0.1c-0.2-0.1-0.2-0.2-0.2-0.4c0.1-0.1,0.1-0.2,0.2-0.2
	C80.3,31.8,80.5,31.9,80.6,32L80.6,32z"/>
<path class="st2" d="M79.5,32.1c0.1,0.2-0.1,0.3-0.3,0.4c-0.1,0-0.2,0-0.2,0.1c0.5,0.2,0.7,0.6,1.1,0.9v0.1c-0.6,0-1.3-0.2-1.7-0.7
	c-0.1-0.1-0.3-0.1-0.5-0.2c0.2-0.2,0.6-0.1,1-0.2c0.2-0.2-0.3-0.4,0-0.6c0.1,0,0.2-0.1,0.3-0.1C79.4,31.9,79.4,32,79.5,32.1
	L79.5,32.1z"/>
<path class="st2" d="M72.4,32.1c0,0.1-0.1,0.2-0.1,0.3c-0.1,0.1-0.3,0.1-0.4,0.1c-0.1-0.1-0.2-0.2-0.2-0.4
	C71.9,31.8,72.4,31.8,72.4,32.1L72.4,32.1z"/>
<path class="st2" d="M33.8,32.7c-0.1,0.2-0.1,0.3-0.3,0.3c-0.1,0-0.3-0.1-0.3-0.2c0-0.1,0.1-0.2,0.1-0.3
	C33.4,32.4,33.8,32.5,33.8,32.7L33.8,32.7z"/>
<path class="st2" d="M35.2,32.5c0,0.2-0.3,0.4-0.3,0.6c-0.3,0.6-0.7,1.1-1.4,1.2c-0.1-0.2,0.2-0.4,0.3-0.5c0.3-0.6,0.8-0.9,1.3-1.3
	H35.2L35.2,32.5z"/>
<path class="st2" d="M72,32.7c0,0.2-0.2,0.3-0.3,0.4c-0.2,0.1-0.3-0.1-0.4-0.1c-0.1-0.1-0.1-0.3,0-0.4C71.6,32.4,71.9,32.5,72,32.7
	L72,32.7z"/>
<path class="st2" d="M73.1,32.9c0,0.2-0.1,0.3-0.3,0.4c0-0.1-0.1,0-0.2,0c-0.1-0.1-0.2-0.2-0.2-0.3c0.1-0.1,0.1-0.2,0.2-0.2
	C72.8,32.6,73,32.6,73.1,32.9L73.1,32.9z"/>
<path class="st2" d="M37.9,32.8c0,0.2-0.1,0.3-0.3,0.4c-0.2,0-0.3-0.1-0.3-0.2c0-0.2,0.1-0.3,0.2-0.4C37.7,32.6,37.7,32.7,37.9,32.8
	L37.9,32.8z"/>
<path class="st2" d="M39,32.9c-0.1,0.2-0.2,0.3-0.3,0.3c-0.1,0-0.3-0.1-0.3-0.2c0-0.2,0.1-0.3,0.2-0.4C38.8,32.6,39,32.7,39,32.9
	L39,32.9z"/>
<path class="st2" d="M76.8,34.1c0.1,0.1,0.2,0.2,0.2,0.3c-0.3,0.1-0.5-0.2-0.8-0.2c-0.4-0.4-0.7-0.9-0.9-1.4c0.2-0.2,0.3,0,0.5,0.1
	C76.2,33.2,76.6,33.6,76.8,34.1L76.8,34.1z"/>
<path class="st2" d="M77.5,32.9c0.1,0.1,0,0.3,0,0.4c-0.1,0.2-0.3,0.1-0.5,0.1c-0.1-0.1-0.2-0.2-0.1-0.4c0.1-0.1,0.2-0.2,0.3-0.2
	C77.3,32.8,77.3,32.9,77.5,32.9L77.5,32.9z"/>
<path class="st2" d="M40.6,33.4c0,0.1,0.1,0.3-0.1,0.4c-0.2,0-0.4,0-0.4-0.2c-0.1-0.2,0.1-0.2,0.2-0.3
	C40.5,33.2,40.5,33.3,40.6,33.4L40.6,33.4z"/>
<path class="st2" d="M73,34.5c0.2,0.3,0.4,0.8,0.5,1.2c-0.1,0.1,0.1,0.2,0,0.3h-0.1c-0.8-0.6-1-1.3-1.2-2.1c-0.1,0-0.1-0.1-0.1-0.2
	c0.2-0.2,0.3,0.2,0.5,0.2L73,34.5L73,34.5z"/>
<path class="st2" d="M42.9,33.9C42.9,33.9,42.9,33.9,42.9,33.9c-0.7,0.5-1.6,0.8-2.4,0.3c0-0.1,0-0.1,0.1-0.2c0.5-0.2,1-0.4,1.5-0.3
	L42.9,33.9L42.9,33.9z"/>
<path class="st2" d="M38.9,34c-0.6,0.4-1.1,1.1-1.9,1.3c-0.1,0.1-0.2,0.2-0.4,0.1c0.3-0.9,1.3-1.4,2.2-1.5V34L38.9,34z"/>
<path class="st2" d="M72,34.8c0.1,0.1,0,0.3-0.1,0.4c-0.1,0.1-0.3,0.1-0.3,0c-0.2-0.1-0.2-0.2-0.2-0.3c0.1-0.1,0.2-0.1,0.3-0.2
	C71.8,34.6,71.9,34.6,72,34.8L72,34.8z"/>
<path class="st2" d="M70.6,34.9c-0.1,0.2-0.4,0.4-0.6,0.5c-0.6,0.2-1.1-0.1-1.6-0.2c0-0.1,0.2-0.1,0.3-0.2c0.6-0.1,1.2-0.2,1.8-0.1
	C70.4,34.8,70.5,34.8,70.6,34.9L70.6,34.9z"/>
<path class="st2" d="M38.9,35.4c-0.1,0.1-0.1,0.2-0.2,0.3c-0.1,0.1-0.2,0-0.3-0.1c0-0.1-0.2-0.2-0.1-0.3c0-0.1,0.2-0.2,0.3-0.2
	C38.8,35.1,38.9,35.2,38.9,35.4L38.9,35.4z"/>
<path class="st2" d="M40,35.5c-0.1,0.1-0.1,0.3-0.2,0.3c-0.1,0-0.2,0-0.3-0.1c-0.1-0.1-0.1-0.2-0.1-0.3c0-0.1,0.2-0.1,0.2-0.2
	C39.7,35.2,39.9,35.4,40,35.5L40,35.5z"/>
<path class="st2" d="M71.7,35.7c0,0.1-0.1,0.2-0.1,0.3c-0.1,0.1-0.3,0.1-0.4,0.1c-0.1,0-0.2-0.2-0.2-0.2c-0.1-0.1,0.1-0.2,0.1-0.3
	C71.3,35.3,71.6,35.4,71.7,35.7L71.7,35.7z"/>
<path class="st2" d="M72.5,35.7c0,0.1,0.1,0.2,0,0.2c-0.1,0.1-0.2,0.3-0.4,0.2C72,36.2,72,36,71.9,36c-0.1-0.2,0-0.4,0.2-0.5
	C72.3,35.5,72.4,35.6,72.5,35.7L72.5,35.7z"/>
<path class="st2" d="M39.3,36.2c0,0.2,0,0.4-0.2,0.5c-0.2,0-0.4,0-0.5-0.2c0-0.2,0-0.4,0.2-0.5C39,35.9,39.3,36,39.3,36.2L39.3,36.2
	z"/>
<path class="st2" d="M40.3,36.1c0,0.5-0.1,1.1-0.6,1.4c-0.3,0.1-0.6,0.3-0.8,0.1v-0.1C39.2,37,39.9,36.6,40.3,36.1L40.3,36.1z"/>
<path class="st2" d="M69,36.5c0.1,0.1-0.1,0.2-0.1,0.3c-0.1,0.1-0.3,0.1-0.4,0c-0.1-0.1-0.1-0.2-0.1-0.4c0-0.1,0.1-0.2,0.2-0.2
	C68.8,36.2,68.9,36.4,69,36.5L69,36.5z"/>
<path class="st2" d="M42.1,37.3c0.2,0.4,0.1,0.9,0.2,1.4c-0.3,0-0.4-0.3-0.6-0.5c-0.4-0.5-0.3-1.2-0.5-1.8c0-0.1,0.1-0.1,0.1,0
	c0.3,0.2,0.4,0.5,0.7,0.7C41.9,37.2,42.1,37.2,42.1,37.3L42.1,37.3z"/>
<path class="st2" d="M69.9,36.6c0,0.1-0.2,0.2-0.2,0.3c-0.1,0-0.2-0.1-0.3-0.2c0-0.2,0.1-0.2,0.2-0.3C69.6,36.4,69.8,36.4,69.9,36.6
	L69.9,36.6z"/>
<path class="st2" d="M71.9,38.2c0,0.1,0,0.2-0.1,0.1h-0.1c-0.5-0.5-1-1-0.9-1.7l0.1,0C71.4,37,71.9,37.5,71.9,38.2L71.9,38.2z"/>
<path class="st2" d="M70.6,37.6c0,0.1-0.1,0.2-0.2,0.3c-0.2,0.1-0.5,0-0.5-0.2c0-0.2,0.2-0.3,0.3-0.3C70.4,37.3,70.5,37.5,70.6,37.6
	L70.6,37.6z"/>
<path class="st2" d="M69.5,38c-0.2,0.6-0.9,1-1.3,1.5c-0.1-0.1-0.1-0.2,0-0.3c0.2-0.7,0.7-1.3,1.3-1.6C69.7,37.7,69.4,37.9,69.5,38
	L69.5,38z"/>
<path class="st2" d="M70.8,38.5c0,0.2-0.2,0.2-0.2,0.3c-0.1,0-0.3-0.1-0.4-0.2c0-0.2,0.1-0.2,0.2-0.3C70.5,38.3,70.7,38.4,70.8,38.5
	L70.8,38.5z"/>
<path class="st2" d="M57.9,6.9c0.2,0,0.4,0.2,0.4,0.4c0,0.2-0.2,0.4-0.4,0.4h-5.1c-0.2,0-0.4-0.2-0.4-0.4c0-0.2,0.2-0.4,0.4-0.4
	H57.9L57.9,6.9z M54.3,7.6c0.5,0,0-0.6-0.2-0.6h-0.5c-0.5,0,0,0.6,0.2,0.6H54.3L54.3,7.6z M56.4,7.6c0.5,0,0-0.6-0.2-0.6h-0.5
	c-0.5,0,0,0.6,0.2,0.6H56.4L56.4,7.6z M57.9,7h-0.2c-0.5,0-0.1,0.6,0.2,0.6C58.3,7.6,58.3,7,57.9,7L57.9,7z"/>
<path class="st2" d="M57.4,12.8l1,0.4l1-0.4L59,14.2l0.8-0.2l-0.3,0.9l0.3,0.8l-0.7-0.2l0.3,1.6l-1-0.4l-1,0.4l0.4-1.6l-0.8,0.2
	l0.2-0.9l-0.2-0.8l0.7,0.1L57.4,12.8L57.4,12.8z M58.9,15.4c0.2,0,0.2-0.3,0.2-0.6c0-0.6-0.5,0-0.7-0.6c-0.2,0.5-0.7,0-0.7,0.5
	c0,0.3,0,0.6,0.3,0.6H58.9L58.9,15.4z M57.9,14.8c0,0.2,0.3,0.1,0.5,0.1c0.2,0,0.5,0.2,0.5-0.1c0-0.3-0.3-0.2-0.5-0.2
	C58.2,14.6,57.9,14.5,57.9,14.8L57.9,14.8z"/>
<polygon class="st2" points="55.2,14.9 55.2,14.7 55,14.7 55.1,14.6 55,14.4 55.2,14.4 55.3,14.2 55.4,14.4 55.6,14.4 55.5,14.6 
	55.6,14.7 55.5,14.7 55.5,14.9 55.3,14.8 55.2,14.9 "/>
<polygon class="st2" points="54.4,15.9 54.4,15.7 54.2,15.7 54.4,15.5 54.3,15.4 54.4,15.4 54.5,15.2 54.6,15.4 54.8,15.4 
	54.7,15.5 54.9,15.7 54.7,15.7 54.7,15.9 54.5,15.8 54.4,15.9 "/>
<polygon class="st2" points="55.7,15.8 55.7,15.6 55.5,15.5 55.6,15.4 55.6,15.3 55.7,15.3 55.8,15.1 55.9,15.3 56.1,15.3 56,15.4 
	56.2,15.5 56,15.6 56,15.8 55.8,15.6 55.7,15.8 "/>
<polygon class="st2" points="55.8,16.5 55.8,16.4 55.7,16.4 55.8,16.3 55.8,16.2 55.9,16.2 55.9,16.1 56,16.2 56.1,16.2 56,16.3 
	56.1,16.4 56,16.4 56,16.5 55.9,16.4 55.8,16.5 "/>
<polygon class="st2" points="54.6,17.3 54.6,17 54.4,17 54.6,16.7 54.4,16.5 54.7,16.5 54.9,16.2 55.1,16.5 55.4,16.5 55.2,16.7 
	55.4,17 55.2,17 55.2,17.3 54.9,17.1 54.6,17.3 "/>
<polygon class="st2" points="55.3,0.9 55.9,2.4 57.4,1.9 56.6,3.4 57.9,4.3 56.3,4.5 56.4,6.2 55.3,5.1 54.1,6.2 54.2,4.5 52.6,4.3 
	53.9,3.4 53.1,1.9 54.6,2.4 55.3,0.9 "/>
<path class="st2" d="M49.7,34.5c-0.2,0.1-0.3,0.1-0.2,0.3l0.2,0.9c0,0.2,0.1,0.4-0.1,0.6c-0.1,0.2-0.4,0.3-0.6,0.4
	c-0.1,0-0.5,0.1-0.7,0c-0.2-0.1-0.3-0.2-0.4-0.5l-0.2-1C47.6,35,47.5,35,47.3,35l0-0.1l1.2-0.3l0,0.1c-0.2,0.1-0.3,0.1-0.3,0.3
	l0.2,1c0,0.2,0.1,0.6,0.6,0.4c0.6-0.1,0.5-0.6,0.5-0.8l-0.2-0.9c0-0.2-0.1-0.3-0.4-0.2l0-0.1L49.7,34.5L49.7,34.5L49.7,34.5z"/>
<path class="st2" d="M51.4,34.7c-0.1-0.2-0.4-0.5-0.8-0.4c-0.2,0-0.4,0.2-0.3,0.4c0,0.2,0.1,0.2,0.4,0.3l0.6,0.1
	c0.1,0,0.4,0.1,0.5,0.4c0.1,0.3-0.1,0.7-0.7,0.8c-0.3,0.1-0.5,0-0.6,0c-0.1,0-0.1,0.1-0.1,0.1l-0.1,0l-0.2-0.7l0.1,0
	c0.1,0.3,0.4,0.6,0.8,0.5c0.4-0.1,0.4-0.4,0.4-0.4c0-0.2-0.2-0.2-0.5-0.3l-0.3,0C50,35.3,50,35.1,50,34.9c0-0.2,0-0.6,0.6-0.7
	c0.3-0.1,0.5,0,0.6,0c0.1,0,0.1-0.1,0.1-0.1l0.1,0L51.4,34.7L51.4,34.7L51.4,34.7z"/>
<path class="st2" d="M53.7,35.8l-1.3,0.1l0-0.1c0.3,0,0.3-0.1,0.3-0.3L52.6,34c-0.2,0-0.6,0.1-0.6,0.6l-0.1,0l0-0.6l2.1-0.2l0.1,0.6
	l-0.1,0c-0.1-0.5-0.5-0.4-0.7-0.4l0.1,1.6C53.3,35.8,53.4,35.8,53.7,35.8L53.7,35.8L53.7,35.8z"/>
<path class="st2" d="M56.6,35.8l-0.7,0l-0.7-0.9l-0.1,0l0,0.6c0,0.2,0.1,0.2,0.3,0.3l0,0.1l-1.2,0v-0.1c0.2,0,0.3,0,0.3-0.3l0-1.3
	c0-0.3-0.1-0.3-0.3-0.3l0-0.1l1.1,0c0.2,0,1,0,1,0.5c0,0.4-0.4,0.4-0.6,0.5l0.7,0.9C56.5,35.7,56.6,35.7,56.6,35.8L56.6,35.8
	L56.6,35.8z M55.1,34.8c0.5,0,0.6-0.1,0.7-0.4c0-0.3-0.1-0.4-0.4-0.4c-0.2,0-0.2,0-0.2,0.1L55.1,34.8L55.1,34.8z"/>
<path class="st2" d="M58.9,36.1L57.8,36l0-0.1c0.2,0,0.3,0,0.3-0.1c0-0.1-0.1-0.3-0.1-0.4l-0.8-0.1c-0.1,0.2-0.2,0.3-0.2,0.4
	c0,0.1,0.2,0.1,0.3,0.2l0,0.1l-0.7-0.1l0-0.1c0.2,0,0.3-0.1,0.4-0.3l1-1.5l0.1,0l0.6,1.6C58.7,35.9,58.8,36,58.9,36.1L58.9,36.1
	L58.9,36.1z M57.9,35.3l-0.3-0.8l-0.4,0.7L57.9,35.3L57.9,35.3z"/>
<path class="st2" d="M61,36.5l-2-0.4l0-0.1c0.2,0,0.3,0,0.3-0.2l0.3-1.4c0-0.2-0.1-0.2-0.3-0.3l0-0.1l1.2,0.2l0,0.1
	c-0.2,0-0.4-0.1-0.4,0.2l-0.2,1.4c0,0.1,0,0.2,0.3,0.2c0.5,0.1,0.8-0.1,1-0.4l0.1,0L61,36.5L61,36.5z"/>
<path class="st2" d="M62.3,36.8l-1.2-0.3l0-0.1c0.2,0,0.3,0,0.4-0.1l0.3-1.4c0-0.2-0.1-0.2-0.3-0.3l0-0.1l1.2,0.3l0,0.1
	c-0.2,0-0.3-0.1-0.4,0.1L62,36.5C62,36.7,62.1,36.7,62.3,36.8L62.3,36.8L62.3,36.8z"/>
<path class="st2" d="M64.8,37.1L63.6,37l0-0.1c0.2,0,0.3,0,0.3-0.1c0-0.1-0.1-0.3-0.1-0.4L63,36.4c-0.1,0.2-0.2,0.3-0.2,0.4
	c0,0.1,0.2,0.1,0.3,0.2l0,0.1l-0.7-0.1l0-0.1c0.2,0,0.3-0.1,0.4-0.3l0.9-1.5l0.1,0l0.6,1.6C64.5,37,64.6,37.1,64.8,37.1L64.8,37.1
	L64.8,37.1z M63.8,36.3l-0.3-0.8l-0.4,0.7L63.8,36.3L63.8,36.3z"/>
<path class="st2" d="M55.7,13.3c0-0.7-0.4,0-0.6-0.6c-0.2,0.5-0.6,0.1-0.6,0.6c0,0.2,0.1,0.3,0.2,0.4v0.2c0,0.1,0,0.1,0.1,0.1h0.8
	c0.1,0,0.1,0,0.1-0.1v-0.2C55.7,13.5,55.7,13.4,55.7,13.3L55.7,13.3z M55.1,13.4c-0.2,0-0.5,0.1-0.5-0.1c0-0.3,0.2-0.3,0.4-0.3
	c0.2,0,0.5-0.1,0.5,0.3C55.6,13.5,55.3,13.4,55.1,13.4L55.1,13.4z"/>
<path class="st2" d="M61.9,22c0.2,0,0.3-0.1,0.3-0.3s-0.1-0.3-0.3-0.3c-0.2,0-0.3,0.1-0.3,0.3S61.7,22,61.9,22L61.9,22z"/>
<path class="st2" d="M60.4,11.5c0,0-0.2,0.3-0.2,0.3c0,0.1,0.1,0.2,0.2,0.2c0.1,0,0.2-0.1,0.2-0.2C60.5,11.8,60.4,11.5,60.4,11.5
	L60.4,11.5z"/>
<path class="st2" d="M49.9,11.5c0,0-0.2,0.3-0.2,0.3c0,0.1,0.1,0.2,0.2,0.2c0.1,0,0.2-0.1,0.2-0.2C50.1,11.8,49.9,11.5,49.9,11.5
	L49.9,11.5z"/>
<path class="st2" d="M52.6,11.5c0,0-0.2,0.3-0.2,0.3c0,0.1,0.1,0.2,0.2,0.2c0.1,0,0.2-0.1,0.2-0.2C52.7,11.8,52.6,11.5,52.6,11.5
	L52.6,11.5z"/>
<path class="st2" d="M55.2,11.5c0,0-0.2,0.3-0.2,0.3c0,0.1,0.1,0.2,0.2,0.2c0.1,0,0.2-0.1,0.2-0.2C55.3,11.8,55.2,11.5,55.2,11.5
	L55.2,11.5z"/>
<path class="st2" d="M57.8,11.5c0,0-0.2,0.3-0.2,0.3c0,0.1,0.1,0.2,0.2,0.2c0.1,0,0.2-0.1,0.2-0.2C57.9,11.8,57.8,11.5,57.8,11.5
	L57.8,11.5z"/>
<path class="st2" d="M49.9,15c0,0,0.2,0.3,0.2,0.3c0,0.1-0.1,0.2-0.2,0.2c-0.1,0-0.2-0.1-0.2-0.2C49.8,15.3,49.9,15,49.9,15L49.9,15
	z"/>
<path class="st2" d="M49.9,18.5c0,0,0.2,0.3,0.2,0.3c0,0.1-0.1,0.2-0.2,0.2c-0.1,0-0.2-0.1-0.2-0.2C49.8,18.8,49.9,18.5,49.9,18.5
	L49.9,18.5z"/>
<path class="st2" d="M50.4,21.3c0,0,0.2,0.3,0.2,0.3c0,0.1-0.1,0.2-0.2,0.2c-0.1,0-0.2-0.1-0.2-0.2C50.2,21.6,50.4,21.3,50.4,21.3
	L50.4,21.3z"/>
<path class="st2" d="M52.6,22.7c0,0,0.2,0.3,0.2,0.3c0,0.1-0.1,0.2-0.2,0.2c-0.1,0-0.2-0.1-0.2-0.2C52.4,23,52.6,22.7,52.6,22.7
	L52.6,22.7z"/>
<path class="st2" d="M60.5,15c0,0-0.2,0.3-0.2,0.3c0,0.1,0.1,0.2,0.2,0.2c0.1,0,0.2-0.1,0.2-0.2C60.7,15.3,60.5,15,60.5,15L60.5,15z
	"/>
<path class="st2" d="M60.5,18.5c0,0-0.2,0.3-0.2,0.3c0,0.1,0.1,0.2,0.2,0.2c0.1,0,0.2-0.1,0.2-0.2C60.7,18.8,60.5,18.5,60.5,18.5
	L60.5,18.5z"/>
<path class="st2" d="M60.1,21.3c0,0-0.2,0.3-0.2,0.3c0,0.1,0.1,0.2,0.2,0.2c0.1,0,0.2-0.1,0.2-0.2C60.3,21.6,60.1,21.3,60.1,21.3
	L60.1,21.3z"/>
<path class="st2" d="M57.9,22.7c0,0-0.2,0.3-0.2,0.3c0,0.1,0.1,0.2,0.2,0.2c0.1,0,0.2-0.1,0.2-0.2C58.1,23,57.9,22.7,57.9,22.7
	L57.9,22.7z"/>
<path class="st2" d="M55.2,24.3c0,0-0.2,0.3-0.2,0.3c0,0.1,0.1,0.2,0.2,0.2c0.1,0,0.2-0.1,0.2-0.2C55.4,24.6,55.2,24.3,55.2,24.3
	L55.2,24.3z"/>
<path class="st2" d="M59.5,19.1c0,0,0.1,0.1,0.2,0l0.1-0.3c0,0-0.1-0.1-0.2-0.1c-0.3,0.1-0.6,0.1-0.7,0.4c0,0.2,0.1,0.3,0.3,0.4
	c0.1,0,0.1,0.1,0.2,0.1c0,0.1,0,0.2-0.1,0.2c-0.2-0.2-0.5,0.1-0.7-0.2c0.1-0.2,0.2-0.5,0-0.8c0,0,0.1-0.1,0.1-0.1
	c-0.1-0.2-0.3-0.1-0.5-0.1c-0.2,0-0.4,0.1-0.6,0.3c0,0.1,0.1,0.2,0.1,0.3c0.1,0,0.1,0,0.1,0.1l-0.2,0.1c0,0,0,0.1,0.1,0.2
	c-0.1,0.1-0.2-0.1-0.3-0.2c0-0.1,0-0.4-0.2-0.4c0,0-0.1,0-0.1,0c0,0.1-0.1,0.2-0.1,0.3c0,0.1,0.1,0.3,0.1,0.3s0.5,0.4,0.6,0.6
	c-0.1,0.3-0.1,0.7-0.5,0.9c-0.1,0.1-0.1,0.2-0.1,0.3l0.1,0.1c0.2-0.1,0.6-0.1,0.6-0.5c0.1-0.2,0.2-0.3,0.3-0.4c0.2,0,0.3,0,0.4,0.2
	c0,0.3-0.2,0.4-0.4,0.5c0,0,0,0.1,0,0.1c0.1,0.1,0.2,0.1,0.3,0.1c0.3-0.2,0.4-0.5,0.6-0.6c0,0.2-0.3,0.2-0.1,0.4
	c0.1,0,0.3,0,0.4-0.2c-0.1-0.3,0.4-0.4,0.1-0.7c0-0.2,0.3-0.3,0.2-0.6c-0.1-0.3-0.4-0.3-0.5-0.5C59.3,19,59.4,19,59.5,19.1
	L59.5,19.1z"/>
<path class="st2" d="M47.5,22.1c0.2,0,0.3-0.1,0.3-0.3c0-0.2-0.1-0.3-0.3-0.3c-0.2,0-0.3,0.1-0.3,0.3C47.2,22,47.3,22.1,47.5,22.1
	L47.5,22.1z"/>
<path class="st2" d="M30.6,32c0.2,0,0.3-0.1,0.3-0.3c0-0.2-0.1-0.3-0.3-0.3c-0.2,0-0.3,0.1-0.3,0.3C30.2,31.9,30.4,32,30.6,32
	L30.6,32z"/>
<path class="st2" d="M41.3,34.4L41.3,34.4L41.3,34.4L41.3,34.4L41.3,34.4C41.3,34.4,41.3,34.4,41.3,34.4L41.3,34.4L41.3,34.4
	L41.3,34.4C41.3,34.4,41.3,34.4,41.3,34.4L41.3,34.4C41.3,34.4,41.3,34.4,41.3,34.4L41.3,34.4L41.3,34.4
	C41.3,34.3,41.3,34.3,41.3,34.4C41.3,34.4,41.3,34.4,41.3,34.4L41.3,34.4C41.3,34.4,41.3,34.4,41.3,34.4L41.3,34.4L41.3,34.4z
	 M41.3,34.4C41.3,34.4,41.3,34.4,41.3,34.4C41.3,34.4,41.3,34.4,41.3,34.4C41.3,34.4,41.3,34.4,41.3,34.4L41.3,34.4L41.3,34.4z"/>
<path class="st2" d="M41.4,34.4C41.4,34.4,41.4,34.3,41.4,34.4C41.4,34.3,41.4,34.4,41.4,34.4C41.4,34.4,41.4,34.4,41.4,34.4
	L41.4,34.4C41.4,34.4,41.4,34.4,41.4,34.4C41.4,34.4,41.4,34.4,41.4,34.4C41.4,34.4,41.4,34.4,41.4,34.4
	C41.3,34.4,41.3,34.4,41.4,34.4L41.4,34.4L41.4,34.4L41.4,34.4C41.3,34.4,41.4,34.4,41.4,34.4C41.4,34.4,41.4,34.4,41.4,34.4
	C41.4,34.4,41.4,34.4,41.4,34.4L41.4,34.4C41.3,34.4,41.3,34.4,41.4,34.4C41.3,34.4,41.3,34.3,41.4,34.4
	C41.4,34.3,41.4,34.4,41.4,34.4L41.4,34.4L41.4,34.4L41.4,34.4L41.4,34.4L41.4,34.4z"/>
<path class="st2" d="M41.5,34.4C41.5,34.4,41.5,34.4,41.5,34.4L41.5,34.4L41.5,34.4L41.5,34.4L41.5,34.4L41.5,34.4L41.5,34.4
	L41.5,34.4C41.4,34.4,41.4,34.4,41.5,34.4L41.5,34.4L41.5,34.4L41.5,34.4C41.4,34.4,41.4,34.4,41.5,34.4
	C41.4,34.4,41.4,34.4,41.5,34.4L41.5,34.4L41.5,34.4L41.5,34.4L41.5,34.4C41.4,34.4,41.4,34.4,41.5,34.4L41.5,34.4L41.5,34.4
	L41.5,34.4C41.5,34.4,41.5,34.4,41.5,34.4C41.5,34.4,41.5,34.4,41.5,34.4L41.5,34.4L41.5,34.4L41.5,34.4
	C41.5,34.4,41.5,34.4,41.5,34.4C41.5,34.4,41.5,34.4,41.5,34.4L41.5,34.4L41.5,34.4L41.5,34.4L41.5,34.4z"/>
<path class="st2" d="M41.5,34.4C41.5,34.4,41.5,34.4,41.5,34.4C41.5,34.4,41.5,34.4,41.5,34.4L41.5,34.4
	C41.5,34.4,41.5,34.4,41.5,34.4C41.5,34.4,41.5,34.3,41.5,34.4C41.5,34.3,41.5,34.4,41.5,34.4C41.5,34.4,41.5,34.4,41.5,34.4
	L41.5,34.4L41.5,34.4z M41.5,34.4C41.5,34.4,41.5,34.4,41.5,34.4C41.5,34.4,41.5,34.4,41.5,34.4C41.5,34.4,41.5,34.3,41.5,34.4
	C41.5,34.3,41.5,34.4,41.5,34.4C41.5,34.4,41.5,34.4,41.5,34.4L41.5,34.4z"/>
<path class="st2" d="M41.6,34.4C41.6,34.4,41.6,34.4,41.6,34.4C41.6,34.4,41.6,34.4,41.6,34.4C41.6,34.4,41.6,34.4,41.6,34.4
	C41.6,34.4,41.5,34.4,41.6,34.4C41.5,34.4,41.5,34.4,41.6,34.4C41.6,34.4,41.6,34.4,41.6,34.4C41.6,34.4,41.6,34.4,41.6,34.4
	C41.6,34.4,41.6,34.4,41.6,34.4C41.6,34.4,41.6,34.4,41.6,34.4L41.6,34.4L41.6,34.4L41.6,34.4L41.6,34.4L41.6,34.4L41.6,34.4z"/>
<path class="st2" d="M61.3,11L61.3,11l-12.1,0v0h0l0,9.2c0,0.9,0.4,1.8,0.9,2l4.6,2.9c0.1,0.1,0.3,0.2,0.4,0.2
	c0.1,0,0.3-0.1,0.4-0.1l4.7-3c0.6-0.3,0.9-1.1,0.9-2L61.3,11L61.3,11L61.3,11z M60.9,20.4c-0.1,0.7-0.3,1.3-0.8,1.6l-4.5,2.9h0
	c-0.1,0.1-0.2,0.1-0.3,0.1c-0.1,0-0.3,0-0.4-0.1L50.3,22c-0.5-0.3-0.7-0.9-0.8-1.6v-9h11.4V20.4L60.9,20.4z"/>
<path class="st2" d="M56.9,24.5l0.1-0.1C56.9,24.4,56.9,24.4,56.9,24.5L56.9,24.5z"/>
<path class="st2" d="M47.8,37.1l-1.1,0.1l0-0.1c0.2,0,0.3-0.1,0.3-0.2c0-0.1-0.1-0.3-0.2-0.4l-0.8,0.1c-0.1,0.2-0.1,0.4-0.1,0.4
	c0,0.1,0.2,0.1,0.3,0.1l0,0.1l-0.7,0.1l0-0.1c0.2,0,0.2-0.2,0.3-0.4l0.6-1.7l0.1,0l1,1.5C47.5,36.9,47.6,37,47.8,37.1L47.8,37.1
	L47.8,37.1z M46.6,36.5l-0.4-0.7l-0.2,0.8L46.6,36.5L46.6,36.5z"/>
<path class="st2" d="M67.7,32.7c-0.2-0.5-0.6-0.9-1.2-1.1c-0.6-0.1-1.1,0-1.5,0.4c-0.6,0.5-0.2,1.3-0.2,2c0,0.1,0,0.2-0.1,0.3
	c-2.5-0.2-4.8-0.9-7.3-1.1c-0.6-0.1-1.1-0.1-1.7-0.2L55,33c-2.2,0.1-4.3,0.2-6.3,0.7c-0.4,0.1-0.9,0.2-1.3,0.3
	c-0.3-0.1-0.6,0.2-0.9,0.1l-0.6,0.1c-0.1,0-0.1,0-0.2,0c-0.3-0.7,0.6-1.1,0.3-1.8c-0.2-0.4-0.7-0.8-1.2-0.7
	c-0.6-0.1-1.1,0.3-1.4,0.7c-0.4,0.9,0.1,1.8,0.3,2.6c0,0.3,0.3,0.6,0,0.8c-0.6-0.4-1.3-0.6-2-0.4c-0.2,0.1-0.6,0-0.7,0.2
	c0.7,0.4,1.7,0.3,2.5,0.3c0.1,0,0.2-0.1,0.3,0c0.1,0.5-0.1,1.1,0.2,1.5c0.3,0.4,0.8,0.5,1.3,0.6c1.6,0,3-0.5,4.5-0.9
	c0.2,0,0.4-0.1,0.6-0.1c0.8-0.2,1.6-0.3,2.5-0.3c-0.4,0.5-0.6,1-0.7,1.6c-0.2,0.5,0.4,0.5,0.5,0.8c-0.5,0.2-0.9,0.5-1.4,0.7
	c-1.1,0-2,0.4-3.1,0.5c0,0.2,0.4,0.2,0.4,0.4c-0.1,0.2-0.2,0.2-0.3,0.3c0,0.1,0,0.1,0.1,0.1c0.1-0.1,0.3,0,0.4-0.2
	c0.3,0,0.6-0.1,1-0.1c0.3-0.1,0.6-0.1,0.9-0.3c0.4-0.1,0.6-0.3,1-0.5c0.5,0,1-0.2,1.5-0.2v0.1c-0.4,0.6-0.8,1.3-1.2,1.9
	c-0.1,0.1,0,0.2,0.1,0.3c0.2,0.1,0.5,0,0.7-0.1c0.4-0.6,0.7-1.2,1-1.9c0.1-0.6,0.6-0.9,1-1.3c0.1,0,0.2-0.1,0.2,0
	c-0.3,0.4-0.6,0.8-0.8,1.2c-0.1,0.5-0.2,1.1,0.3,1.5c0.2,0.2,0.5,0.1,0.8,0.1c0.7-0.3,1.5,0.2,2.1-0.5c0.3-0.1,0.4,0.3,0.5,0.5
	c0.3,0.1,0.6,0.4,0.9,0.2c0-0.2-0.2-0.4-0.3-0.5c-0.2-0.4-0.5-0.7-0.7-1c-0.1-0.2-0.2-0.4-0.3-0.6c0.3,0.1,0.6,0.3,0.9,0.4
	c0.3,0.1,0.7,0.1,0.9,0.3c0.2,0.3,0.6,0.5,0.9,0.7c0.4,0.2,0.9,0.2,1.4,0.4c0.2,0,0.4,0.2,0.6,0c-0.1-0.1-0.2-0.1-0.3-0.2
	c-0.1-0.2,0.3-0.1,0.4-0.3c0-0.1-0.1-0.1-0.2-0.1c-0.2-0.1-0.9-0.2-1-0.3c-0.2,0-0.4-0.1-0.6-0.2c-1,0-1.6-0.9-2.4-1.3
	c0.2-0.2,0.5-0.3,0.6-0.6c0.2-0.2,0.2-0.6,0.1-0.9c-0.2-0.5-0.8-0.5-1.2-0.8l0-0.1c0.7,0,1.3,0.1,1.9,0.2c1.7,0.2,3.2,0.9,4.9,0.9
	c0.9,0,2.1,0.1,2.6-0.9c0.1-0.5,0.2-1.1,0.3-1.6C67.2,34.5,67.8,33.7,67.7,32.7L67.7,32.7z M49,40.7l-0.2-0.2
	c0.1-0.2,0.4-0.1,0.6-0.2c0.4-0.1,1-0.3,1.5-0.2C50.3,40.5,49.7,40.5,49,40.7L49,40.7z M59.8,40.4c0.4,0.2,1.2,0.4,1.8,0.4
	c-0.1,0.2-0.5,0-0.4,0.3c-0.5-0.2-1.2-0.3-1.6-0.7C59.7,40.4,59.8,40.4,59.8,40.4L59.8,40.4z M43.6,33c0.1-0.3,0.1-0.6,0.4-0.9
	c0.4-0.2,1-0.2,1.4,0.1c0.1,0.1,0.2,0.2,0.3,0.3c0.1,0.3-0.1,0.6-0.3,0.8h-0.2c0-0.3,0-0.6,0.1-0.8c0-0.2-0.2-0.2-0.3-0.3
	c-0.3-0.1-0.6,0.1-0.8,0.2c-0.2,0.2-0.3,0.5-0.2,0.8c0.1,0.2,0,0.5,0.1,0.7L44,33.9C43.8,33.6,43.6,33.4,43.6,33L43.6,33z
	 M44.4,33.5c0.3,0.2,0.6,0.1,0.9,0.2c0.1,0.2,0.1,0.4-0.1,0.6c-0.3-0.1-0.7,0-0.8-0.3C44.5,33.8,44.4,33.6,44.4,33.5L44.4,33.5z
	 M44.4,32.9c0.1-0.1,0-0.3,0.2-0.4c0.1,0,0.3,0,0.3,0.1c0,0.2,0,0.4-0.1,0.6C44.6,33.3,44.4,33.1,44.4,32.9L44.4,32.9z M52.5,38.5
	c-0.1-0.6,0.2-1.1,0.6-1.6c0.2-0.1,0.5-0.1,0.7,0c-0.4,0.1-1,0.2-1.1,0.8c0,0.2-0.1,0.3,0.1,0.5c0.2,0.3,0.6,0.2,0.9,0.5
	c0,0.1-0.1,0.2-0.2,0.2C53.1,38.8,52.8,38.7,52.5,38.5L52.5,38.5z M51.9,39.7c0.4-0.2,0.8-0.5,1.3-0.4
	C52.8,39.6,52.3,39.7,51.9,39.7L51.9,39.7z M53.5,39.9c-0.2,0.6-0.5,1.1-0.8,1.6c0,0.1-0.2,0.1-0.3,0.1c0-0.2,0.2-0.4,0.3-0.6
	c0.4-0.5,0.5-1,0.9-1.4C53.7,39.7,53.5,39.7,53.5,39.9L53.5,39.9z M53.9,38.9L53.9,38.9L53.9,38.9L53.9,38.9L53.9,38.9L53.9,38.9
	C54,38.8,53.9,38.8,53.9,38.9L53.9,38.9L53.9,38.9z M53.8,38.4c-0.3,0-0.6-0.1-0.8-0.2c-0.2-0.2,0-0.4,0-0.6
	c0.2-0.4,0.9-0.6,1.3-0.2C54.2,37.8,54,38.1,53.8,38.4L53.8,38.4z M54.2,38.4c0.1-0.2,0.2-0.5,0.3-0.7
	C54.4,37.9,54.3,38.2,54.2,38.4L54.2,38.4z M54.4,37c-0.2-0.1-0.3-0.3-0.6-0.3c0.2-0.1,0.4-0.1,0.7,0C54.5,36.8,54.4,36.9,54.4,37
	L54.4,37z M54.6,37.5L54.6,37.5l0-0.2h0V37.5L54.6,37.5z M54.6,38.3c0-0.1,0-0.2,0.1-0.2c0.1-0.1,0.2,0.1,0.2,0.1
	C54.8,38.3,54.7,38.3,54.6,38.3L54.6,38.3z M54.8,37.2c0.1-0.2,0.1-0.5,0.3-0.6c0.2,0,0.3,0,0.5,0.1c0,0.3,0.5,0.8,0,1.1
	c-0.2,0.1-0.4,0.2-0.6,0.1C54.8,37.6,54.8,37.5,54.8,37.2L54.8,37.2z M56.1,36.7c0-0.2,0.2,0,0.2-0.1l0.5,0
	C56.6,36.6,56.2,37.3,56.1,36.7L56.1,36.7z M57,37c-0.2,0.1-0.4,0.3-0.6,0.4C56.5,37.1,56.8,36.9,57,37L57,37z M56.2,38L56.2,38
	L56.2,38L56.2,38L56.2,38L56.2,38z M56.3,39.1c0,0,0,0.1,0,0.1l-0.4-0.3C56,38.9,56.2,39,56.3,39.1L56.3,39.1z M55.8,38.6
	c0,0,0.1,0,0.2,0H55.8L55.8,38.6z M55.6,38.3c0.1-0.1,0.2-0.3,0.3-0.3c0,0,0,0,0,0.1C55.8,38.2,55.7,38.3,55.6,38.3L55.6,38.3z
	 M55.2,38.3L55.2,38.3l0-0.1C55.3,38.2,55.2,38.2,55.2,38.3L55.2,38.3z M55.2,38.9c0.2-0.2,0.4,0.1,0.5,0.3c0.3,0.4,0.9,0.7,0.7,1.3
	c-0.3,0.3-0.8,0-1.2,0.2c-0.2,0-0.5,0-0.6-0.2C54.8,40,54.9,39.4,55.2,38.9L55.2,38.9z M54.7,39.3l0.1-0.1c-0.1,0.4-0.3,0.9-0.6,1.3
	C54.1,40,54.6,39.6,54.7,39.3L54.7,39.3z M55.5,41.3c-0.3,0-0.8,0.2-1.1-0.1c0-0.1-0.1-0.2-0.1-0.3c0.3-0.1,0.5,0.2,0.8,0
	c0.4,0,0.8-0.1,1.2,0c0.2,0.1,0.5-0.3,0.5,0.1C56.6,41.6,55.9,41.2,55.5,41.3L55.5,41.3z M56.5,38.8L56.5,38.8L56.5,38.8L56.5,38.8
	L56.5,38.8L56.5,38.8z M56.6,39.9c0,0.2,0.2,0.2,0.1,0.4C56.7,40.3,56.6,40.1,56.6,39.9L56.6,39.9z M57.1,41L57.1,41
	c-0.2,0-0.1-0.2-0.1-0.3C57.1,40.7,57.2,40.9,57.1,41L57.1,41z M58,41.4c0,0.1-0.1,0.1-0.1,0c-0.5-0.7-0.8-1.4-1.1-2.1l0.1,0
	C57.2,40,57.5,40.7,58,41.4L58,41.4z M58.6,39.8C58.6,39.8,58.6,39.8,58.6,39.8c-0.5,0.1-0.9-0.2-1.2-0.5l0-0.1
	C57.8,39.3,58.2,39.6,58.6,39.8L58.6,39.8z M58.1,37.5c0.2,0.1,0.2,0.3,0.2,0.5c0,0.4-0.2,0.7-0.6,0.9c-0.2,0.1-0.5,0.1-0.7,0.1
	c0.4,0,0.9-0.2,1-0.6L58.1,37.5L58.1,37.5z M57.8,37.4c0.1,0.2,0.2,0.5,0.2,0.8c-0.2,0.3-0.5,0.3-0.8,0.4c-0.2,0-0.3,0-0.4-0.1
	c0-0.1,0-0.1-0.1-0.2c0.1-0.2-0.4-0.5-0.1-0.6C56.8,37.4,57.5,36.8,57.8,37.4L57.8,37.4z M66.5,36.1c-0.1,0.2,0,0.5-0.2,0.6
	c0,0.3-0.3,0.5-0.5,0.6c-2.1,0.5-4.1-0.2-6.1-0.6c-2.8-0.6-6-0.8-8.9-0.1c-1.3,0.2-2.6,0.6-3.9,0.9c-0.8,0.1-1.7,0.2-2.4,0
	c-0.6-0.3-0.4-1.1-0.6-1.7c0-0.4-0.1-0.8-0.1-1.2c-0.1-0.1-0.1-0.3-0.1-0.5c0.3,0,0.5,0.2,0.8,0.3c1.5,0.3,2.7-0.2,4.1-0.4
	c1.3-0.3,2.6-0.5,4-0.6c1.6,0,3.1-0.1,4.6,0.2c0.5,0,0.9,0.1,1.4,0.2c1,0.1,1.9,0.4,2.9,0.5c0.2,0.1,0.3,0.1,0.5,0.1
	c1.6,0.2,3.3,0.7,4.8,0C66.9,34.9,66.6,35.5,66.5,36.1L66.5,36.1z M66.1,34c0,0.3-0.2,0.2-0.4,0.3h-0.4c-0.1-0.1-0.1-0.4-0.1-0.5
	C65.5,33.9,65.8,33.9,66.1,34L66.1,34z M65.9,33.6c0.2-0.2-0.1-1.3,0.5-0.6c0,0.1,0,0.3-0.1,0.4C66.1,33.5,66,33.7,65.9,33.6
	L65.9,33.6z M67.3,33.4c-0.2,0.3-0.4,0.5-0.7,0.6c0-0.4,0.4-0.7,0.3-1.2c-0.2-0.3-0.7-0.4-1.1-0.4c-0.2,0.1-0.1,0.3-0.1,0.4
	l-0.1,0.6c-0.3,0-0.4-0.3-0.5-0.6c0-0.4,0.2-0.7,0.5-0.9c0.3-0.1,0.7-0.1,1,0c0.2,0.1,0.5,0.2,0.6,0.4
	C67.4,32.6,67.3,33.1,67.3,33.4L67.3,33.4z"/>
<g>
	<path class="st2" d="M148,50.1v1.4h-1.1V41.4h1.1v4.4c0.6-0.9,1.4-1.6,2.7-1.6c1.7,0,3.4,1.4,3.4,3.7v0c0,2.3-1.7,3.7-3.4,3.7
		C149.4,51.6,148.6,50.9,148,50.1z M153.1,47.9L153.1,47.9c0-1.7-1.2-2.8-2.5-2.8c-1.3,0-2.6,1.1-2.6,2.8v0c0,1.7,1.3,2.8,2.6,2.8
		C151.9,50.6,153.1,49.6,153.1,47.9z"/>
	<path class="st2" d="M155.6,48.7v-4.4h1.1v4.2c0,1.3,0.7,2.2,2,2.2c1.2,0,2.1-0.9,2.1-2.2v-4.1h1v7.1h-1v-1.2
		c-0.5,0.8-1.2,1.4-2.4,1.4C156.6,51.6,155.6,50.4,155.6,48.7z"/>
	<path class="st2" d="M163.2,50.5l0.5-0.8c0.8,0.6,1.6,0.9,2.5,0.9c0.9,0,1.5-0.4,1.5-1.1v0c0-0.7-0.8-1-1.8-1.3
		c-1.1-0.3-2.4-0.7-2.4-2v0c0-1.2,1-2,2.4-2c0.9,0,1.8,0.3,2.6,0.8l-0.5,0.8c-0.7-0.4-1.4-0.7-2.1-0.7c-0.8,0-1.4,0.4-1.4,1v0
		c0,0.7,0.9,0.9,1.8,1.2c1.1,0.3,2.3,0.8,2.3,2v0c0,1.3-1.1,2.1-2.5,2.1C165.1,51.6,164,51.2,163.2,50.5z"/>
	<path class="st2" d="M170.3,41.6h1.2v1.2h-1.2V41.6z M170.4,44.3h1.1v7.1h-1.1V44.3z"/>
	<path class="st2" d="M173.5,44.3h1.1v1.2c0.5-0.8,1.2-1.4,2.4-1.4c1.7,0,2.7,1.2,2.7,2.9v4.4h-1.1v-4.2c0-1.3-0.7-2.2-2-2.2
		c-1.2,0-2.1,0.9-2.1,2.2v4.1h-1.1V44.3z"/>
	<path class="st2" d="M181.1,47.9L181.1,47.9c0-2.1,1.4-3.7,3.4-3.7c2.1,0,3.3,1.7,3.3,3.8c0,0.1,0,0.2,0,0.3h-5.7
		c0.2,1.5,1.2,2.4,2.5,2.4c1,0,1.7-0.4,2.3-1l0.7,0.6c-0.7,0.8-1.6,1.3-2.9,1.3C182.7,51.6,181.1,50.1,181.1,47.9z M186.8,47.5
		c-0.1-1.3-0.9-2.4-2.3-2.4c-1.2,0-2.2,1-2.3,2.4H186.8z"/>
	<path class="st2" d="M188.7,50.5l0.5-0.8c0.8,0.6,1.6,0.9,2.5,0.9c0.9,0,1.5-0.4,1.5-1.1v0c0-0.7-0.8-1-1.8-1.3
		c-1.1-0.3-2.4-0.7-2.4-2v0c0-1.2,1-2,2.4-2c0.9,0,1.8,0.3,2.6,0.8l-0.5,0.8c-0.7-0.4-1.4-0.7-2.1-0.7c-0.8,0-1.4,0.4-1.4,1v0
		c0,0.7,0.9,0.9,1.8,1.2c1.1,0.3,2.3,0.8,2.3,2v0c0,1.3-1.1,2.1-2.5,2.1C190.7,51.6,189.5,51.2,188.7,50.5z"/>
	<path class="st2" d="M195.1,50.5l0.5-0.8c0.8,0.6,1.6,0.9,2.5,0.9c0.9,0,1.5-0.4,1.5-1.1v0c0-0.7-0.8-1-1.8-1.3
		c-1.1-0.3-2.4-0.7-2.4-2v0c0-1.2,1-2,2.4-2c0.9,0,1.8,0.3,2.6,0.8l-0.5,0.8c-0.7-0.4-1.4-0.7-2.1-0.7c-0.8,0-1.4,0.4-1.4,1v0
		c0,0.7,0.9,0.9,1.8,1.2c1.1,0.3,2.3,0.8,2.3,2v0c0,1.3-1.1,2.1-2.5,2.1C197,51.6,195.9,51.2,195.1,50.5z"/>
	<path class="st2" d="M202,50h1.3v1.5H202V50z"/>
	<path class="st2" d="M204.9,52.7l0.5-0.8c0.8,0.6,1.7,0.9,2.7,0.9c1.6,0,2.6-0.9,2.6-2.5v-0.8c-0.6,0.8-1.5,1.5-2.8,1.5
		c-1.7,0-3.4-1.3-3.4-3.3v0c0-2.1,1.7-3.4,3.4-3.4c1.3,0,2.2,0.7,2.8,1.4v-1.3h1.1v5.9c0,1.1-0.3,1.9-0.9,2.5c-0.6,0.6-1.6,1-2.7,1
		C206.9,53.7,205.8,53.4,204.9,52.7z M210.7,47.5L210.7,47.5c0-1.5-1.3-2.4-2.6-2.4c-1.4,0-2.5,0.9-2.5,2.4v0c0,1.4,1.1,2.4,2.5,2.4
		C209.5,50,210.7,49,210.7,47.5z"/>
	<path class="st2" d="M213.3,47.9L213.3,47.9c0-2,1.6-3.8,3.7-3.8c2.1,0,3.7,1.7,3.7,3.7v0c0,2-1.6,3.7-3.7,3.7
		C214.8,51.6,213.3,49.9,213.3,47.9z M219.6,47.9L219.6,47.9c0-1.6-1.1-2.8-2.7-2.8c-1.5,0-2.6,1.3-2.6,2.8v0c0,1.5,1.1,2.8,2.6,2.8
		C218.5,50.7,219.6,49.4,219.6,47.9z"/>
	<path class="st2" d="M221.1,44.3h1.2l2.4,5.9l2.4-5.9h1.1l-3.1,7.2h-0.9L221.1,44.3z"/>
	<path class="st2" d="M228.2,50h1.3v1.5h-1.3V50z"/>
	<path class="st2" d="M230.8,49.4L230.8,49.4c0-1.5,1.2-2.3,3.1-2.3c0.9,0,1.6,0.1,2.2,0.3v-0.3c0-1.3-0.8-1.9-2.1-1.9
		c-0.8,0-1.5,0.2-2.2,0.5l-0.3-0.9c0.8-0.4,1.6-0.6,2.6-0.6c1,0,1.8,0.3,2.3,0.8c0.5,0.5,0.7,1.2,0.7,2.1v4.4h-1v-1.1
		c-0.5,0.7-1.3,1.2-2.6,1.2C232.1,51.6,230.8,50.8,230.8,49.4z M236,48.8v-0.7c-0.5-0.2-1.2-0.3-2.1-0.3c-1.3,0-2.1,0.6-2.1,1.5v0
		c0,0.9,0.8,1.4,1.8,1.4C234.9,50.8,236,50,236,48.8z"/>
	<path class="st2" d="M238.8,48.7v-4.4h1.1v4.2c0,1.3,0.7,2.2,2,2.2c1.2,0,2.1-0.9,2.1-2.2v-4.1h1.1v7.1h-1.1v-1.2
		c-0.5,0.8-1.2,1.4-2.4,1.4C239.8,51.6,238.8,50.4,238.8,48.7z"/>
</g>
<g>
	<rect x="128.7" y="4.9" class="st2" width="0.5" height="49.5"/>
</g>
<g>
	<path class="st2" d="M166.4,34l-2.6-7.2H154l-2.5,7.2H147l9.6-26h4.6l9.6,26H166.4z M162.7,23.2l-2.4-7c-0.2-0.5-0.4-1.2-0.7-2.2
		s-0.5-1.8-0.6-2.2c-0.3,1.5-0.8,3-1.4,4.8l-2.3,6.7H162.7z"/>
	<path class="st2" d="M174.6,8h7.6c3.5,0,6.1,0.5,7.7,1.6s2.4,2.7,2.4,4.9c0,1.5-0.4,2.8-1.2,3.8c-0.8,1-1.9,1.6-3.3,1.9v0.2
		c1.8,0.3,3.1,1,4,2c0.8,1,1.3,2.4,1.3,4.1c0,2.3-0.8,4.2-2.4,5.5c-1.6,1.3-3.9,2-6.7,2h-9.3V8z M178.8,18.7h4c1.8,0,3-0.3,3.8-0.8
		c0.8-0.6,1.2-1.5,1.2-2.9c0-1.2-0.4-2.1-1.3-2.6c-0.9-0.5-2.3-0.8-4.2-0.8h-3.6V18.7z M178.8,22.2v8.2h4.5c1.8,0,3.1-0.3,4-1
		c0.9-0.7,1.3-1.8,1.3-3.2c0-1.4-0.5-2.4-1.4-3c-0.9-0.7-2.3-1-4.2-1H178.8z"/>
	<path class="st2" d="M197.7,34V8h4.2v22.4h10.9V34H197.7z"/>
	<path class="st2" d="M218.6,34V8h4.2v26H218.6z"/>
	<path class="st2" d="M245,26.8c0,2.2-0.9,4-2.6,5.3c-1.7,1.3-4.1,1.9-7.1,1.9s-5.5-0.4-7.4-1.3v-3.9c1.2,0.5,2.5,1,3.9,1.3
		c1.4,0.3,2.6,0.5,3.8,0.5c1.7,0,3-0.3,3.8-0.9c0.8-0.6,1.2-1.5,1.2-2.5c0-0.9-0.4-1.7-1.1-2.4c-0.8-0.7-2.3-1.4-4.6-2.3
		c-2.4-0.9-4.1-2-5.1-3.2c-1-1.2-1.5-2.6-1.5-4.3c0-2.1,0.8-3.8,2.4-5S234.4,8,237,8c2.5,0,5.1,0.5,7.6,1.6l-1.4,3.4
		c-2.4-0.9-4.5-1.4-6.3-1.4c-1.4,0-2.5,0.3-3.2,0.9c-0.7,0.6-1.1,1.4-1.1,2.3c0,0.7,0.1,1.2,0.4,1.7c0.3,0.5,0.8,0.9,1.4,1.3
		c0.7,0.4,1.9,1,3.6,1.6c1.9,0.8,3.4,1.5,4.3,2.2s1.6,1.4,2,2.3C244.8,24.7,245,25.6,245,26.8z"/>
</g>
</svg>
